  0
SECTION
  2
BLOCKS
  0
ENDSEC
  0
SECTION
  2
ENTITIES
  0
LINE
  8
0
 10
282.24
 20
-99.146
 11
282.24
 21
-96.854
  0
LINE
  8
0
 10
282.24
 20
-96.854
 11
56.5803
 21
294
  0
LINE
  8
0
 10
56.5803
 20
294
 11
-56.5803
 21
294
  0
LINE
  8
0
 10
-56.5803
 20
294
 11
-282.24
 21
-96.854
  0
LINE
  8
0
 10
-282.24
 20
-96.854
 11
-282.24
 21
-99.146
  0
LINE
  8
0
 10
-282.24
 20
-99.146
 11
-227.453
 21
-194.04
  0
LINE
  8
0
 10
-227.453
 20
-194.04
 11
227.453
 21
-194.04
  0
LINE
  8
0
 10
227.453
 20
-194.04
 11
282.24
 21
-99.146
  0
LINE
  8
0
 10
-31.1
 20
285.095
 11
-31.9052
 21
285.9
  0
LINE
  8
0
 10
-31.9052
 20
285.9
 11
-32.2
 21
287
  0
LINE
  8
0
 10
-32.2
 20
287
 11
-31.9052
 21
288.1
  0
LINE
  8
0
 10
-31.9052
 20
288.1
 11
-31.1
 21
288.905
  0
LINE
  8
0
 10
-31.1
 20
288.905
 11
-30
 21
289.2
  0
LINE
  8
0
 10
-30
 20
289.2
 11
-28.9
 21
288.905
  0
LINE
  8
0
 10
-28.9
 20
288.905
 11
-28.0947
 21
288.1
  0
LINE
  8
0
 10
-28.0947
 20
288.1
 11
-27.8
 21
287
  0
LINE
  8
0
 10
-27.8
 20
287
 11
-28.0947
 21
285.9
  0
LINE
  8
0
 10
-28.0947
 20
285.9
 11
-28.9
 21
285.095
  0
LINE
  8
0
 10
-28.9
 20
285.095
 11
-30
 21
284.8
  0
LINE
  8
0
 10
-30
 20
284.8
 11
-31.1
 21
285.095
  0
LINE
  8
0
 10
28.9
 20
285.095
 11
28.0947
 21
285.9
  0
LINE
  8
0
 10
28.0947
 20
285.9
 11
27.8
 21
287
  0
LINE
  8
0
 10
27.8
 20
287
 11
28.0947
 21
288.1
  0
LINE
  8
0
 10
28.0947
 20
288.1
 11
28.9
 21
288.905
  0
LINE
  8
0
 10
28.9
 20
288.905
 11
30
 21
289.2
  0
LINE
  8
0
 10
30
 20
289.2
 11
31.1
 21
288.905
  0
LINE
  8
0
 10
31.1
 20
288.905
 11
31.9052
 21
288.1
  0
LINE
  8
0
 10
31.9052
 20
288.1
 11
32.2
 21
287
  0
LINE
  8
0
 10
32.2
 20
287
 11
31.9052
 21
285.9
  0
LINE
  8
0
 10
31.9052
 20
285.9
 11
31.1
 21
285.095
  0
LINE
  8
0
 10
31.1
 20
285.095
 11
30
 21
284.8
  0
LINE
  8
0
 10
30
 20
284.8
 11
28.9
 21
285.095
  0
LINE
  8
0
 10
-5.17638
 20
240.681
 11
-10
 21
242.679
  0
LINE
  8
0
 10
-10
 20
242.679
 11
-14.1421
 21
245.858
  0
LINE
  8
0
 10
-14.1421
 20
245.858
 11
-17.3205
 21
250
  0
LINE
  8
0
 10
-17.3205
 20
250
 11
-19.3185
 21
254.824
  0
LINE
  8
0
 10
-19.3185
 20
254.824
 11
-20
 21
260
  0
LINE
  8
0
 10
-20
 20
260
 11
-19.3185
 21
265.176
  0
LINE
  8
0
 10
-19.3185
 20
265.176
 11
-17.3205
 21
270
  0
LINE
  8
0
 10
-17.3205
 20
270
 11
-14.1421
 21
274.142
  0
LINE
  8
0
 10
-14.1421
 20
274.142
 11
-10
 21
277.32
  0
LINE
  8
0
 10
-10
 20
277.32
 11
-5.17638
 21
279.319
  0
LINE
  8
0
 10
-5.17638
 20
279.319
 11
0
 21
280
  0
LINE
  8
0
 10
0
 20
280
 11
5.17638
 21
279.319
  0
LINE
  8
0
 10
5.17638
 20
279.319
 11
10
 21
277.32
  0
LINE
  8
0
 10
10
 20
277.32
 11
14.1421
 21
274.142
  0
LINE
  8
0
 10
14.1421
 20
274.142
 11
17.3205
 21
270
  0
LINE
  8
0
 10
17.3205
 20
270
 11
19.3185
 21
265.176
  0
LINE
  8
0
 10
19.3185
 20
265.176
 11
20
 21
260
  0
LINE
  8
0
 10
20
 20
260
 11
19.3185
 21
254.824
  0
LINE
  8
0
 10
19.3185
 20
254.824
 11
17.3205
 21
250
  0
LINE
  8
0
 10
17.3205
 20
250
 11
14.1421
 21
245.858
  0
LINE
  8
0
 10
14.1421
 20
245.858
 11
10
 21
242.679
  0
LINE
  8
0
 10
10
 20
242.679
 11
5.17638
 21
240.681
  0
LINE
  8
0
 10
5.17638
 20
240.681
 11
0
 21
240
  0
LINE
  8
0
 10
0
 20
240
 11
-5.17638
 21
240.681
  0
LINE
  8
0
 10
28.9
 20
227.095
 11
28.0947
 21
227.9
  0
LINE
  8
0
 10
28.0947
 20
227.9
 11
27.8
 21
229
  0
LINE
  8
0
 10
27.8
 20
229
 11
28.0947
 21
230.1
  0
LINE
  8
0
 10
28.0947
 20
230.1
 11
28.9
 21
230.905
  0
LINE
  8
0
 10
28.9
 20
230.905
 11
30
 21
231.2
  0
LINE
  8
0
 10
30
 20
231.2
 11
31.1
 21
230.905
  0
LINE
  8
0
 10
31.1
 20
230.905
 11
31.9052
 21
230.1
  0
LINE
  8
0
 10
31.9052
 20
230.1
 11
32.2
 21
229
  0
LINE
  8
0
 10
32.2
 20
229
 11
31.9052
 21
227.9
  0
LINE
  8
0
 10
31.9052
 20
227.9
 11
31.1
 21
227.095
  0
LINE
  8
0
 10
31.1
 20
227.095
 11
30
 21
226.8
  0
LINE
  8
0
 10
30
 20
226.8
 11
28.9
 21
227.095
  0
LINE
  8
0
 10
-31.1
 20
227.095
 11
-31.9052
 21
227.9
  0
LINE
  8
0
 10
-31.9052
 20
227.9
 11
-32.2
 21
229
  0
LINE
  8
0
 10
-32.2
 20
229
 11
-31.9052
 21
230.1
  0
LINE
  8
0
 10
-31.9052
 20
230.1
 11
-31.1
 21
230.905
  0
LINE
  8
0
 10
-31.1
 20
230.905
 11
-30
 21
231.2
  0
LINE
  8
0
 10
-30
 20
231.2
 11
-28.9
 21
230.905
  0
LINE
  8
0
 10
-28.9
 20
230.905
 11
-28.0947
 21
230.1
  0
LINE
  8
0
 10
-28.0947
 20
230.1
 11
-27.8
 21
229
  0
LINE
  8
0
 10
-27.8
 20
229
 11
-28.0947
 21
227.9
  0
LINE
  8
0
 10
-28.0947
 20
227.9
 11
-28.9
 21
227.095
  0
LINE
  8
0
 10
-28.9
 20
227.095
 11
-30
 21
226.8
  0
LINE
  8
0
 10
-30
 20
226.8
 11
-31.1
 21
227.095
  0
LINE
  8
0
 10
-1.04999
 20
96.0074
 11
-1.81865
 21
96.7761
  0
LINE
  8
0
 10
-1.81865
 20
96.7761
 11
-2.09999
 21
97.8261
  0
LINE
  8
0
 10
-2.09999
 20
97.8261
 11
-2.09999
 21
157.826
  0
LINE
  8
0
 10
-2.09999
 20
157.826
 11
-1.81865
 21
158.876
  0
LINE
  8
0
 10
-1.81865
 20
158.876
 11
-1.04999
 21
159.645
  0
LINE
  8
0
 10
-1.04999
 20
159.645
 11
0
 21
159.926
  0
LINE
  8
0
 10
0
 20
159.926
 11
1.04999
 21
159.645
  0
LINE
  8
0
 10
1.04999
 20
159.645
 11
1.81865
 21
158.876
  0
LINE
  8
0
 10
1.81865
 20
158.876
 11
2.09999
 21
157.826
  0
LINE
  8
0
 10
2.09999
 20
157.826
 11
2.09999
 21
97.8261
  0
LINE
  8
0
 10
2.09999
 20
97.8261
 11
1.81865
 21
96.7761
  0
LINE
  8
0
 10
1.81865
 20
96.7761
 11
1.04999
 21
96.0074
  0
LINE
  8
0
 10
1.04999
 20
96.0074
 11
0
 21
95.7261
  0
LINE
  8
0
 10
0
 20
95.7261
 11
-1.04999
 21
96.0074
  0
LINE
  8
0
 10
-49.963
 20
82.9012
 11
-50.7317
 21
83.6699
  0
LINE
  8
0
 10
-50.7317
 20
83.6699
 11
-80.7317
 21
135.631
  0
LINE
  8
0
 10
-80.7317
 20
135.631
 11
-81.013
 21
136.681
  0
LINE
  8
0
 10
-81.013
 20
136.681
 11
-80.7317
 21
137.731
  0
LINE
  8
0
 10
-80.7317
 20
137.731
 11
-79.963
 21
138.5
  0
LINE
  8
0
 10
-79.963
 20
138.5
 11
-78.913
 21
138.781
  0
LINE
  8
0
 10
-78.913
 20
138.781
 11
-77.863
 21
138.5
  0
LINE
  8
0
 10
-77.863
 20
138.5
 11
-77.0944
 21
137.731
  0
LINE
  8
0
 10
-77.0944
 20
137.731
 11
-47.0944
 21
85.7699
  0
LINE
  8
0
 10
-47.0944
 20
85.7699
 11
-46.813
 21
84.7199
  0
LINE
  8
0
 10
-46.813
 20
84.7199
 11
-47.0944
 21
83.6699
  0
LINE
  8
0
 10
-47.0944
 20
83.6699
 11
-47.863
 21
82.9012
  0
LINE
  8
0
 10
-47.863
 20
82.9012
 11
-48.913
 21
82.6199
  0
LINE
  8
0
 10
-48.913
 20
82.6199
 11
-49.963
 21
82.9012
  0
LINE
  8
0
 10
47.863
 20
82.9012
 11
47.0944
 21
83.6699
  0
LINE
  8
0
 10
47.0944
 20
83.6699
 11
46.813
 21
84.7199
  0
LINE
  8
0
 10
46.813
 20
84.7199
 11
47.0944
 21
85.7699
  0
LINE
  8
0
 10
47.0944
 20
85.7699
 11
77.0944
 21
137.731
  0
LINE
  8
0
 10
77.0944
 20
137.731
 11
77.863
 21
138.5
  0
LINE
  8
0
 10
77.863
 20
138.5
 11
78.913
 21
138.781
  0
LINE
  8
0
 10
78.913
 20
138.781
 11
79.963
 21
138.5
  0
LINE
  8
0
 10
79.963
 20
138.5
 11
80.7317
 21
137.731
  0
LINE
  8
0
 10
80.7317
 20
137.731
 11
81.013
 21
136.681
  0
LINE
  8
0
 10
81.013
 20
136.681
 11
80.7317
 21
135.631
  0
LINE
  8
0
 10
80.7317
 20
135.631
 11
50.7317
 21
83.6699
  0
LINE
  8
0
 10
50.7317
 20
83.6699
 11
49.963
 21
82.9012
  0
LINE
  8
0
 10
49.963
 20
82.9012
 11
48.913
 21
82.6199
  0
LINE
  8
0
 10
48.913
 20
82.6199
 11
47.863
 21
82.9012
  0
LINE
  8
0
 10
83.6699
 20
47.0944
 11
82.9012
 21
47.863
  0
LINE
  8
0
 10
82.9012
 20
47.863
 11
82.6199
 21
48.913
  0
LINE
  8
0
 10
82.6199
 20
48.913
 11
82.9012
 21
49.963
  0
LINE
  8
0
 10
82.9012
 20
49.963
 11
83.6699
 21
50.7317
  0
LINE
  8
0
 10
83.6699
 20
50.7317
 11
135.631
 21
80.7317
  0
LINE
  8
0
 10
135.631
 20
80.7317
 11
136.681
 21
81.013
  0
LINE
  8
0
 10
136.681
 20
81.013
 11
137.731
 21
80.7317
  0
LINE
  8
0
 10
137.731
 20
80.7317
 11
138.5
 21
79.963
  0
LINE
  8
0
 10
138.5
 20
79.963
 11
138.781
 21
78.913
  0
LINE
  8
0
 10
138.781
 20
78.913
 11
138.5
 21
77.863
  0
LINE
  8
0
 10
138.5
 20
77.863
 11
137.731
 21
77.0944
  0
LINE
  8
0
 10
137.731
 20
77.0944
 11
85.7699
 21
47.0944
  0
LINE
  8
0
 10
85.7699
 20
47.0944
 11
84.7199
 21
46.813
  0
LINE
  8
0
 10
84.7199
 20
46.813
 11
83.6699
 21
47.0944
  0
LINE
  8
0
 10
-85.7699
 20
47.0944
 11
-137.731
 21
77.0944
  0
LINE
  8
0
 10
-137.731
 20
77.0944
 11
-138.5
 21
77.863
  0
LINE
  8
0
 10
-138.5
 20
77.863
 11
-138.781
 21
78.913
  0
LINE
  8
0
 10
-138.781
 20
78.913
 11
-138.5
 21
79.963
  0
LINE
  8
0
 10
-138.5
 20
79.963
 11
-137.731
 21
80.7317
  0
LINE
  8
0
 10
-137.731
 20
80.7317
 11
-136.681
 21
81.013
  0
LINE
  8
0
 10
-136.681
 20
81.013
 11
-135.631
 21
80.7317
  0
LINE
  8
0
 10
-135.631
 20
80.7317
 11
-83.6699
 21
50.7317
  0
LINE
  8
0
 10
-83.6699
 20
50.7317
 11
-82.9012
 21
49.963
  0
LINE
  8
0
 10
-82.9012
 20
49.963
 11
-82.6199
 21
48.913
  0
LINE
  8
0
 10
-82.6199
 20
48.913
 11
-82.9012
 21
47.863
  0
LINE
  8
0
 10
-82.9012
 20
47.863
 11
-83.6699
 21
47.0944
  0
LINE
  8
0
 10
-83.6699
 20
47.0944
 11
-84.7199
 21
46.813
  0
LINE
  8
0
 10
-84.7199
 20
46.813
 11
-85.7699
 21
47.0944
  0
LINE
  8
0
 10
-2.5
 20
-4.33012
 11
-4.33012
 21
-2.5
  0
LINE
  8
0
 10
-4.33012
 20
-2.5
 11
-5
 21
0
  0
LINE
  8
0
 10
-5
 20
0
 11
-4.33012
 21
2.5
  0
LINE
  8
0
 10
-4.33012
 20
2.5
 11
-2.5
 21
4.33012
  0
LINE
  8
0
 10
-2.5
 20
4.33012
 11
0
 21
5
  0
LINE
  8
0
 10
0
 20
5
 11
2.5
 21
4.33012
  0
LINE
  8
0
 10
2.5
 20
4.33012
 11
4.33012
 21
2.5
  0
LINE
  8
0
 10
4.33012
 20
2.5
 11
5
 21
0
  0
LINE
  8
0
 10
5
 20
0
 11
4.33012
 21
-2.5
  0
LINE
  8
0
 10
4.33012
 20
-2.5
 11
2.5
 21
-4.33012
  0
LINE
  8
0
 10
2.5
 20
-4.33012
 11
0
 21
-5
  0
LINE
  8
0
 10
0
 20
-5
 11
-2.5
 21
-4.33012
  0
LINE
  8
0
 10
97.8261
 20
-2.09999
 11
96.7761
 21
-1.81865
  0
LINE
  8
0
 10
96.7761
 20
-1.81865
 11
96.0074
 21
-1.04999
  0
LINE
  8
0
 10
96.0074
 20
-1.04999
 11
95.7261
 21
0
  0
LINE
  8
0
 10
95.7261
 20
0
 11
96.0074
 21
1.04999
  0
LINE
  8
0
 10
96.0074
 20
1.04999
 11
96.7761
 21
1.81865
  0
LINE
  8
0
 10
96.7761
 20
1.81865
 11
97.8261
 21
2.09999
  0
LINE
  8
0
 10
97.8261
 20
2.09999
 11
157.826
 21
2.09999
  0
LINE
  8
0
 10
157.826
 20
2.09999
 11
158.876
 21
1.81865
  0
LINE
  8
0
 10
158.876
 20
1.81865
 11
159.645
 21
1.04999
  0
LINE
  8
0
 10
159.645
 20
1.04999
 11
159.926
 21
0
  0
LINE
  8
0
 10
159.926
 20
0
 11
159.645
 21
-1.04999
  0
LINE
  8
0
 10
159.645
 20
-1.04999
 11
158.876
 21
-1.81865
  0
LINE
  8
0
 10
158.876
 20
-1.81865
 11
157.826
 21
-2.09999
  0
LINE
  8
0
 10
157.826
 20
-2.09999
 11
97.8261
 21
-2.09999
  0
LINE
  8
0
 10
-157.826
 20
-2.09999
 11
-158.876
 21
-1.81865
  0
LINE
  8
0
 10
-158.876
 20
-1.81865
 11
-159.645
 21
-1.04999
  0
LINE
  8
0
 10
-159.645
 20
-1.04999
 11
-159.926
 21
0
  0
LINE
  8
0
 10
-159.926
 20
0
 11
-159.645
 21
1.04999
  0
LINE
  8
0
 10
-159.645
 20
1.04999
 11
-158.876
 21
1.81865
  0
LINE
  8
0
 10
-158.876
 20
1.81865
 11
-157.826
 21
2.09999
  0
LINE
  8
0
 10
-157.826
 20
2.09999
 11
-97.8261
 21
2.09999
  0
LINE
  8
0
 10
-97.8261
 20
2.09999
 11
-96.7761
 21
1.81865
  0
LINE
  8
0
 10
-96.7761
 20
1.81865
 11
-96.0074
 21
1.04999
  0
LINE
  8
0
 10
-96.0074
 20
1.04999
 11
-95.7261
 21
0
  0
LINE
  8
0
 10
-95.7261
 20
0
 11
-96.0074
 21
-1.04999
  0
LINE
  8
0
 10
-96.0074
 20
-1.04999
 11
-96.7761
 21
-1.81865
  0
LINE
  8
0
 10
-96.7761
 20
-1.81865
 11
-97.8261
 21
-2.09999
  0
LINE
  8
0
 10
-97.8261
 20
-2.09999
 11
-157.826
 21
-2.09999
  0
LINE
  8
0
 10
-137.731
 20
-80.7317
 11
-138.5
 21
-79.963
  0
LINE
  8
0
 10
-138.5
 20
-79.963
 11
-138.781
 21
-78.913
  0
LINE
  8
0
 10
-138.781
 20
-78.913
 11
-138.5
 21
-77.863
  0
LINE
  8
0
 10
-138.5
 20
-77.863
 11
-137.731
 21
-77.0944
  0
LINE
  8
0
 10
-137.731
 20
-77.0944
 11
-85.7699
 21
-47.0944
  0
LINE
  8
0
 10
-85.7699
 20
-47.0944
 11
-84.7199
 21
-46.813
  0
LINE
  8
0
 10
-84.7199
 20
-46.813
 11
-83.6699
 21
-47.0944
  0
LINE
  8
0
 10
-83.6699
 20
-47.0944
 11
-82.9012
 21
-47.863
  0
LINE
  8
0
 10
-82.9012
 20
-47.863
 11
-82.6199
 21
-48.913
  0
LINE
  8
0
 10
-82.6199
 20
-48.913
 11
-82.9012
 21
-49.963
  0
LINE
  8
0
 10
-82.9012
 20
-49.963
 11
-83.6699
 21
-50.7317
  0
LINE
  8
0
 10
-83.6699
 20
-50.7317
 11
-135.631
 21
-80.7317
  0
LINE
  8
0
 10
-135.631
 20
-80.7317
 11
-136.681
 21
-81.013
  0
LINE
  8
0
 10
-136.681
 20
-81.013
 11
-137.731
 21
-80.7317
  0
LINE
  8
0
 10
135.631
 20
-80.7317
 11
83.6699
 21
-50.7317
  0
LINE
  8
0
 10
83.6699
 20
-50.7317
 11
82.9012
 21
-49.963
  0
LINE
  8
0
 10
82.9012
 20
-49.963
 11
82.6199
 21
-48.913
  0
LINE
  8
0
 10
82.6199
 20
-48.913
 11
82.9012
 21
-47.863
  0
LINE
  8
0
 10
82.9012
 20
-47.863
 11
83.6699
 21
-47.0944
  0
LINE
  8
0
 10
83.6699
 20
-47.0944
 11
84.7199
 21
-46.813
  0
LINE
  8
0
 10
84.7199
 20
-46.813
 11
85.7699
 21
-47.0944
  0
LINE
  8
0
 10
85.7699
 20
-47.0944
 11
137.731
 21
-77.0944
  0
LINE
  8
0
 10
137.731
 20
-77.0944
 11
138.5
 21
-77.863
  0
LINE
  8
0
 10
138.5
 20
-77.863
 11
138.781
 21
-78.913
  0
LINE
  8
0
 10
138.781
 20
-78.913
 11
138.5
 21
-79.963
  0
LINE
  8
0
 10
138.5
 20
-79.963
 11
137.731
 21
-80.7317
  0
LINE
  8
0
 10
137.731
 20
-80.7317
 11
136.681
 21
-81.013
  0
LINE
  8
0
 10
136.681
 20
-81.013
 11
135.631
 21
-80.7317
  0
LINE
  8
0
 10
77.863
 20
-138.5
 11
77.0944
 21
-137.731
  0
LINE
  8
0
 10
77.0944
 20
-137.731
 11
47.0944
 21
-85.7699
  0
LINE
  8
0
 10
47.0944
 20
-85.7699
 11
46.813
 21
-84.7199
  0
LINE
  8
0
 10
46.813
 20
-84.7199
 11
47.0944
 21
-83.6699
  0
LINE
  8
0
 10
47.0944
 20
-83.6699
 11
47.863
 21
-82.9012
  0
LINE
  8
0
 10
47.863
 20
-82.9012
 11
48.913
 21
-82.6199
  0
LINE
  8
0
 10
48.913
 20
-82.6199
 11
49.963
 21
-82.9012
  0
LINE
  8
0
 10
49.963
 20
-82.9012
 11
50.7317
 21
-83.6699
  0
LINE
  8
0
 10
50.7317
 20
-83.6699
 11
80.7317
 21
-135.631
  0
LINE
  8
0
 10
80.7317
 20
-135.631
 11
81.013
 21
-136.681
  0
LINE
  8
0
 10
81.013
 20
-136.681
 11
80.7317
 21
-137.731
  0
LINE
  8
0
 10
80.7317
 20
-137.731
 11
79.963
 21
-138.5
  0
LINE
  8
0
 10
79.963
 20
-138.5
 11
78.913
 21
-138.781
  0
LINE
  8
0
 10
78.913
 20
-138.781
 11
77.863
 21
-138.5
  0
LINE
  8
0
 10
-79.963
 20
-138.5
 11
-80.7317
 21
-137.731
  0
LINE
  8
0
 10
-80.7317
 20
-137.731
 11
-81.013
 21
-136.681
  0
LINE
  8
0
 10
-81.013
 20
-136.681
 11
-80.7317
 21
-135.631
  0
LINE
  8
0
 10
-80.7317
 20
-135.631
 11
-50.7317
 21
-83.6699
  0
LINE
  8
0
 10
-50.7317
 20
-83.6699
 11
-49.963
 21
-82.9012
  0
LINE
  8
0
 10
-49.963
 20
-82.9012
 11
-48.913
 21
-82.6199
  0
LINE
  8
0
 10
-48.913
 20
-82.6199
 11
-47.863
 21
-82.9012
  0
LINE
  8
0
 10
-47.863
 20
-82.9012
 11
-47.0944
 21
-83.6699
  0
LINE
  8
0
 10
-47.0944
 20
-83.6699
 11
-46.813
 21
-84.7199
  0
LINE
  8
0
 10
-46.813
 20
-84.7199
 11
-47.0944
 21
-85.7699
  0
LINE
  8
0
 10
-47.0944
 20
-85.7699
 11
-77.0944
 21
-137.731
  0
LINE
  8
0
 10
-77.0944
 20
-137.731
 11
-77.863
 21
-138.5
  0
LINE
  8
0
 10
-77.863
 20
-138.5
 11
-78.913
 21
-138.781
  0
LINE
  8
0
 10
-78.913
 20
-138.781
 11
-79.963
 21
-138.5
  0
LINE
  8
0
 10
-214.42
 20
-90.4245
 11
-215.225
 21
-89.6192
  0
LINE
  8
0
 10
-215.225
 20
-89.6192
 11
-215.52
 21
-88.5192
  0
LINE
  8
0
 10
-215.52
 20
-88.5192
 11
-215.225
 21
-87.4192
  0
LINE
  8
0
 10
-215.225
 20
-87.4192
 11
-214.42
 21
-86.614
  0
LINE
  8
0
 10
-214.42
 20
-86.614
 11
-213.32
 21
-86.3192
  0
LINE
  8
0
 10
-213.32
 20
-86.3192
 11
-212.22
 21
-86.614
  0
LINE
  8
0
 10
-212.22
 20
-86.614
 11
-211.415
 21
-87.4192
  0
LINE
  8
0
 10
-211.415
 20
-87.4192
 11
-211.12
 21
-88.5192
  0
LINE
  8
0
 10
-211.12
 20
-88.5192
 11
-211.415
 21
-89.6192
  0
LINE
  8
0
 10
-211.415
 20
-89.6192
 11
-212.22
 21
-90.4245
  0
LINE
  8
0
 10
-212.22
 20
-90.4245
 11
-213.32
 21
-90.7192
  0
LINE
  8
0
 10
-213.32
 20
-90.7192
 11
-214.42
 21
-90.4245
  0
LINE
  8
0
 10
212.22
 20
-90.4245
 11
211.415
 21
-89.6192
  0
LINE
  8
0
 10
211.415
 20
-89.6192
 11
211.12
 21
-88.5192
  0
LINE
  8
0
 10
211.12
 20
-88.5192
 11
211.415
 21
-87.4192
  0
LINE
  8
0
 10
211.415
 20
-87.4192
 11
212.22
 21
-86.614
  0
LINE
  8
0
 10
212.22
 20
-86.614
 11
213.32
 21
-86.3192
  0
LINE
  8
0
 10
213.32
 20
-86.3192
 11
214.42
 21
-86.614
  0
LINE
  8
0
 10
214.42
 20
-86.614
 11
215.225
 21
-87.4192
  0
LINE
  8
0
 10
215.225
 20
-87.4192
 11
215.52
 21
-88.5192
  0
LINE
  8
0
 10
215.52
 20
-88.5192
 11
215.225
 21
-89.6192
  0
LINE
  8
0
 10
215.225
 20
-89.6192
 11
214.42
 21
-90.4245
  0
LINE
  8
0
 10
214.42
 20
-90.4245
 11
213.32
 21
-90.7192
  0
LINE
  8
0
 10
213.32
 20
-90.7192
 11
212.22
 21
-90.4245
  0
LINE
  8
0
 10
-1.04999
 20
-159.645
 11
-1.81865
 21
-158.876
  0
LINE
  8
0
 10
-1.81865
 20
-158.876
 11
-2.09999
 21
-157.826
  0
LINE
  8
0
 10
-2.09999
 20
-157.826
 11
-2.09999
 21
-97.8261
  0
LINE
  8
0
 10
-2.09999
 20
-97.8261
 11
-1.81865
 21
-96.7761
  0
LINE
  8
0
 10
-1.81865
 20
-96.7761
 11
-1.04999
 21
-96.0074
  0
LINE
  8
0
 10
-1.04999
 20
-96.0074
 11
0
 21
-95.7261
  0
LINE
  8
0
 10
0
 20
-95.7261
 11
1.04999
 21
-96.0074
  0
LINE
  8
0
 10
1.04999
 20
-96.0074
 11
1.81865
 21
-96.7761
  0
LINE
  8
0
 10
1.81865
 20
-96.7761
 11
2.09999
 21
-97.8261
  0
LINE
  8
0
 10
2.09999
 20
-97.8261
 11
2.09999
 21
-157.826
  0
LINE
  8
0
 10
2.09999
 20
-157.826
 11
1.81865
 21
-158.876
  0
LINE
  8
0
 10
1.81865
 20
-158.876
 11
1.04999
 21
-159.645
  0
LINE
  8
0
 10
1.04999
 20
-159.645
 11
0
 21
-159.926
  0
LINE
  8
0
 10
0
 20
-159.926
 11
-1.04999
 21
-159.645
  0
LINE
  8
0
 10
219.99
 20
-149.319
 11
215.167
 21
-147.32
  0
LINE
  8
0
 10
215.167
 20
-147.32
 11
211.024
 21
-144.142
  0
LINE
  8
0
 10
211.024
 20
-144.142
 11
207.846
 21
-140
  0
LINE
  8
0
 10
207.846
 20
-140
 11
205.848
 21
-135.176
  0
LINE
  8
0
 10
205.848
 20
-135.176
 11
205.167
 21
-130
  0
LINE
  8
0
 10
205.167
 20
-130
 11
205.848
 21
-124.824
  0
LINE
  8
0
 10
205.848
 20
-124.824
 11
207.846
 21
-120
  0
LINE
  8
0
 10
207.846
 20
-120
 11
211.024
 21
-115.858
  0
LINE
  8
0
 10
211.024
 20
-115.858
 11
215.167
 21
-112.679
  0
LINE
  8
0
 10
215.167
 20
-112.679
 11
219.99
 21
-110.681
  0
LINE
  8
0
 10
219.99
 20
-110.681
 11
225.167
 21
-110
  0
LINE
  8
0
 10
225.167
 20
-110
 11
230.343
 21
-110.681
  0
LINE
  8
0
 10
230.343
 20
-110.681
 11
235.167
 21
-112.679
  0
LINE
  8
0
 10
235.167
 20
-112.679
 11
239.309
 21
-115.858
  0
LINE
  8
0
 10
239.309
 20
-115.858
 11
242.487
 21
-120
  0
LINE
  8
0
 10
242.487
 20
-120
 11
244.485
 21
-124.824
  0
LINE
  8
0
 10
244.485
 20
-124.824
 11
245.167
 21
-130
  0
LINE
  8
0
 10
245.167
 20
-130
 11
244.485
 21
-135.176
  0
LINE
  8
0
 10
244.485
 20
-135.176
 11
242.487
 21
-140
  0
LINE
  8
0
 10
242.487
 20
-140
 11
239.309
 21
-144.142
  0
LINE
  8
0
 10
239.309
 20
-144.142
 11
235.167
 21
-147.32
  0
LINE
  8
0
 10
235.167
 20
-147.32
 11
230.343
 21
-149.319
  0
LINE
  8
0
 10
230.343
 20
-149.319
 11
225.167
 21
-150
  0
LINE
  8
0
 10
225.167
 20
-150
 11
219.99
 21
-149.319
  0
LINE
  8
0
 10
-230.343
 20
-149.319
 11
-235.167
 21
-147.32
  0
LINE
  8
0
 10
-235.167
 20
-147.32
 11
-239.309
 21
-144.142
  0
LINE
  8
0
 10
-239.309
 20
-144.142
 11
-242.487
 21
-140
  0
LINE
  8
0
 10
-242.487
 20
-140
 11
-244.485
 21
-135.176
  0
LINE
  8
0
 10
-244.485
 20
-135.176
 11
-245.167
 21
-130
  0
LINE
  8
0
 10
-245.167
 20
-130
 11
-244.485
 21
-124.824
  0
LINE
  8
0
 10
-244.485
 20
-124.824
 11
-242.487
 21
-120
  0
LINE
  8
0
 10
-242.487
 20
-120
 11
-239.309
 21
-115.858
  0
LINE
  8
0
 10
-239.309
 20
-115.858
 11
-235.167
 21
-112.679
  0
LINE
  8
0
 10
-235.167
 20
-112.679
 11
-230.343
 21
-110.681
  0
LINE
  8
0
 10
-230.343
 20
-110.681
 11
-225.167
 21
-110
  0
LINE
  8
0
 10
-225.167
 20
-110
 11
-219.99
 21
-110.681
  0
LINE
  8
0
 10
-219.99
 20
-110.681
 11
-215.167
 21
-112.679
  0
LINE
  8
0
 10
-215.167
 20
-112.679
 11
-211.024
 21
-115.858
  0
LINE
  8
0
 10
-211.024
 20
-115.858
 11
-207.846
 21
-120
  0
LINE
  8
0
 10
-207.846
 20
-120
 11
-205.848
 21
-124.824
  0
LINE
  8
0
 10
-205.848
 20
-124.824
 11
-205.167
 21
-130
  0
LINE
  8
0
 10
-205.167
 20
-130
 11
-205.848
 21
-135.176
  0
LINE
  8
0
 10
-205.848
 20
-135.176
 11
-207.846
 21
-140
  0
LINE
  8
0
 10
-207.846
 20
-140
 11
-211.024
 21
-144.142
  0
LINE
  8
0
 10
-211.024
 20
-144.142
 11
-215.167
 21
-147.32
  0
LINE
  8
0
 10
-215.167
 20
-147.32
 11
-219.99
 21
-149.319
  0
LINE
  8
0
 10
-219.99
 20
-149.319
 11
-225.167
 21
-150
  0
LINE
  8
0
 10
-225.167
 20
-150
 11
-230.343
 21
-149.319
  0
LINE
  8
0
 10
-264.649
 20
-119.424
 11
-265.455
 21
-118.619
  0
LINE
  8
0
 10
-265.455
 20
-118.619
 11
-265.749
 21
-117.519
  0
LINE
  8
0
 10
-265.749
 20
-117.519
 11
-265.455
 21
-116.419
  0
LINE
  8
0
 10
-265.455
 20
-116.419
 11
-264.649
 21
-115.614
  0
LINE
  8
0
 10
-264.649
 20
-115.614
 11
-263.549
 21
-115.319
  0
LINE
  8
0
 10
-263.549
 20
-115.319
 11
-262.449
 21
-115.614
  0
LINE
  8
0
 10
-262.449
 20
-115.614
 11
-261.644
 21
-116.419
  0
LINE
  8
0
 10
-261.644
 20
-116.419
 11
-261.349
 21
-117.519
  0
LINE
  8
0
 10
-261.349
 20
-117.519
 11
-261.644
 21
-118.619
  0
LINE
  8
0
 10
-261.644
 20
-118.619
 11
-262.449
 21
-119.424
  0
LINE
  8
0
 10
-262.449
 20
-119.424
 11
-263.549
 21
-119.719
  0
LINE
  8
0
 10
-263.549
 20
-119.719
 11
-264.649
 21
-119.424
  0
LINE
  8
0
 10
262.449
 20
-119.424
 11
261.644
 21
-118.619
  0
LINE
  8
0
 10
261.644
 20
-118.619
 11
261.349
 21
-117.519
  0
LINE
  8
0
 10
261.349
 20
-117.519
 11
261.644
 21
-116.419
  0
LINE
  8
0
 10
261.644
 20
-116.419
 11
262.449
 21
-115.614
  0
LINE
  8
0
 10
262.449
 20
-115.614
 11
263.549
 21
-115.319
  0
LINE
  8
0
 10
263.549
 20
-115.319
 11
264.649
 21
-115.614
  0
LINE
  8
0
 10
264.649
 20
-115.614
 11
265.455
 21
-116.419
  0
LINE
  8
0
 10
265.455
 20
-116.419
 11
265.749
 21
-117.519
  0
LINE
  8
0
 10
265.749
 20
-117.519
 11
265.455
 21
-118.619
  0
LINE
  8
0
 10
265.455
 20
-118.619
 11
264.649
 21
-119.424
  0
LINE
  8
0
 10
264.649
 20
-119.424
 11
263.549
 21
-119.719
  0
LINE
  8
0
 10
263.549
 20
-119.719
 11
262.449
 21
-119.424
  0
LINE
  8
0
 10
-184.42
 20
-142.386
 11
-185.225
 21
-141.581
  0
LINE
  8
0
 10
-185.225
 20
-141.581
 11
-185.52
 21
-140.481
  0
LINE
  8
0
 10
-185.52
 20
-140.481
 11
-185.225
 21
-139.381
  0
LINE
  8
0
 10
-185.225
 20
-139.381
 11
-184.42
 21
-138.576
  0
LINE
  8
0
 10
-184.42
 20
-138.576
 11
-183.32
 21
-138.281
  0
LINE
  8
0
 10
-183.32
 20
-138.281
 11
-182.22
 21
-138.576
  0
LINE
  8
0
 10
-182.22
 20
-138.576
 11
-181.415
 21
-139.381
  0
LINE
  8
0
 10
-181.415
 20
-139.381
 11
-181.12
 21
-140.481
  0
LINE
  8
0
 10
-181.12
 20
-140.481
 11
-181.415
 21
-141.581
  0
LINE
  8
0
 10
-181.415
 20
-141.581
 11
-182.22
 21
-142.386
  0
LINE
  8
0
 10
-182.22
 20
-142.386
 11
-183.32
 21
-142.681
  0
LINE
  8
0
 10
-183.32
 20
-142.681
 11
-184.42
 21
-142.386
  0
LINE
  8
0
 10
182.22
 20
-142.386
 11
181.415
 21
-141.581
  0
LINE
  8
0
 10
181.415
 20
-141.581
 11
181.12
 21
-140.481
  0
LINE
  8
0
 10
181.12
 20
-140.481
 11
181.415
 21
-139.381
  0
LINE
  8
0
 10
181.415
 20
-139.381
 11
182.22
 21
-138.576
  0
LINE
  8
0
 10
182.22
 20
-138.576
 11
183.32
 21
-138.281
  0
LINE
  8
0
 10
183.32
 20
-138.281
 11
184.42
 21
-138.576
  0
LINE
  8
0
 10
184.42
 20
-138.576
 11
185.225
 21
-139.381
  0
LINE
  8
0
 10
185.225
 20
-139.381
 11
185.52
 21
-140.481
  0
LINE
  8
0
 10
185.52
 20
-140.481
 11
185.225
 21
-141.581
  0
LINE
  8
0
 10
185.225
 20
-141.581
 11
184.42
 21
-142.386
  0
LINE
  8
0
 10
184.42
 20
-142.386
 11
183.32
 21
-142.681
  0
LINE
  8
0
 10
183.32
 20
-142.681
 11
182.22
 21
-142.386
  0
LINE
  8
0
 10
-234.649
 20
-171.386
 11
-235.455
 21
-170.581
  0
LINE
  8
0
 10
-235.455
 20
-170.581
 11
-235.749
 21
-169.481
  0
LINE
  8
0
 10
-235.749
 20
-169.481
 11
-235.455
 21
-168.381
  0
LINE
  8
0
 10
-235.455
 20
-168.381
 11
-234.649
 21
-167.576
  0
LINE
  8
0
 10
-234.649
 20
-167.576
 11
-233.549
 21
-167.281
  0
LINE
  8
0
 10
-233.549
 20
-167.281
 11
-232.449
 21
-167.576
  0
LINE
  8
0
 10
-232.449
 20
-167.576
 11
-231.644
 21
-168.381
  0
LINE
  8
0
 10
-231.644
 20
-168.381
 11
-231.349
 21
-169.481
  0
LINE
  8
0
 10
-231.349
 20
-169.481
 11
-231.644
 21
-170.581
  0
LINE
  8
0
 10
-231.644
 20
-170.581
 11
-232.449
 21
-171.386
  0
LINE
  8
0
 10
-232.449
 20
-171.386
 11
-233.549
 21
-171.681
  0
LINE
  8
0
 10
-233.549
 20
-171.681
 11
-234.649
 21
-171.386
  0
LINE
  8
0
 10
232.449
 20
-171.386
 11
231.644
 21
-170.581
  0
LINE
  8
0
 10
231.644
 20
-170.581
 11
231.349
 21
-169.481
  0
LINE
  8
0
 10
231.349
 20
-169.481
 11
231.644
 21
-168.381
  0
LINE
  8
0
 10
231.644
 20
-168.381
 11
232.449
 21
-167.576
  0
LINE
  8
0
 10
232.449
 20
-167.576
 11
233.549
 21
-167.281
  0
LINE
  8
0
 10
233.549
 20
-167.281
 11
234.649
 21
-167.576
  0
LINE
  8
0
 10
234.649
 20
-167.576
 11
235.455
 21
-168.381
  0
LINE
  8
0
 10
235.455
 20
-168.381
 11
235.749
 21
-169.481
  0
LINE
  8
0
 10
235.749
 20
-169.481
 11
235.455
 21
-170.581
  0
LINE
  8
0
 10
235.455
 20
-170.581
 11
234.649
 21
-171.386
  0
LINE
  8
0
 10
234.649
 20
-171.386
 11
233.549
 21
-171.681
  0
LINE
  8
0
 10
233.549
 20
-171.681
 11
232.449
 21
-171.386
  0
ENDSEC
  0
SECTION
  2
OBJECTS
  0
DICTIONARY
  0
ENDSEC
  0
EOF
