  0
SECTION
  2
BLOCKS
  0
ENDSEC
  0
SECTION
  2
ENTITIES
  0
LINE
  8
0
 10
-282.24
 11
-282.24
 20
-99.146
 21
-96.854
  0
LINE
  8
0
 10
-282.24
 11
-56.58
 20
-96.854
 21
294
  0
LINE
  8
0
 10
-56.58
 11
56.58
 20
294
 21
294
  0
LINE
  8
0
 10
56.58
 11
282.24
 20
294
 21
-96.854
  0
LINE
  8
0
 10
282.24
 11
282.24
 20
-96.854
 21
-99.146
  0
LINE
  8
0
 10
282.24
 11
227.453
 20
-99.146
 21
-194.04
  0
LINE
  8
0
 10
227.453
 11
-227.453
 20
-194.04
 21
-194.04
  0
LINE
  8
0
 10
-227.453
 11
-282.24
 20
-194.04
 21
-99.146
  0
LINE
  8
0
 10
-265.749
 11
-265.455
 20
-117.519
 21
-116.419
  0
LINE
  8
0
 10
-265.455
 11
-264.649
 20
-116.419
 21
-115.614
  0
LINE
  8
0
 10
-264.649
 11
-263.549
 20
-115.614
 21
-115.319
  0
LINE
  8
0
 10
-263.549
 11
-262.449
 20
-115.319
 21
-115.614
  0
LINE
  8
0
 10
-262.449
 11
-261.644
 20
-115.614
 21
-116.419
  0
LINE
  8
0
 10
-261.644
 11
-261.349
 20
-116.419
 21
-117.519
  0
LINE
  8
0
 10
-261.349
 11
-261.644
 20
-117.519
 21
-118.619
  0
LINE
  8
0
 10
-261.644
 11
-262.449
 20
-118.619
 21
-119.424
  0
LINE
  8
0
 10
-262.449
 11
-263.549
 20
-119.424
 21
-119.719
  0
LINE
  8
0
 10
-263.549
 11
-264.649
 20
-119.719
 21
-119.424
  0
LINE
  8
0
 10
-264.649
 11
-265.455
 20
-119.424
 21
-118.619
  0
LINE
  8
0
 10
-265.455
 11
-265.749
 20
-118.619
 21
-117.519
  0
LINE
  8
0
 10
-235.749
 11
-235.455
 20
-169.481
 21
-168.381
  0
LINE
  8
0
 10
-235.455
 11
-234.649
 20
-168.381
 21
-167.576
  0
LINE
  8
0
 10
-234.649
 11
-233.549
 20
-167.576
 21
-167.281
  0
LINE
  8
0
 10
-233.549
 11
-232.449
 20
-167.281
 21
-167.576
  0
LINE
  8
0
 10
-232.449
 11
-231.644
 20
-167.576
 21
-168.381
  0
LINE
  8
0
 10
-231.644
 11
-231.349
 20
-168.381
 21
-169.481
  0
LINE
  8
0
 10
-231.349
 11
-231.644
 20
-169.481
 21
-170.581
  0
LINE
  8
0
 10
-231.644
 11
-232.449
 20
-170.581
 21
-171.386
  0
LINE
  8
0
 10
-232.449
 11
-233.549
 20
-171.386
 21
-171.681
  0
LINE
  8
0
 10
-233.549
 11
-234.649
 20
-171.681
 21
-171.386
  0
LINE
  8
0
 10
-234.649
 11
-235.455
 20
-171.386
 21
-170.581
  0
LINE
  8
0
 10
-235.455
 11
-235.749
 20
-170.581
 21
-169.481
  0
LINE
  8
0
 10
-32.2
 11
-31.905
 20
287
 21
288.1
  0
LINE
  8
0
 10
-31.905
 11
-31.1
 20
288.1
 21
288.905
  0
LINE
  8
0
 10
-31.1
 11
-30
 20
288.905
 21
289.2
  0
LINE
  8
0
 10
-30
 11
-28.9
 20
289.2
 21
288.905
  0
LINE
  8
0
 10
-28.9
 11
-28.095
 20
288.905
 21
288.1
  0
LINE
  8
0
 10
-28.095
 11
-27.8
 20
288.1
 21
287
  0
LINE
  8
0
 10
-27.8
 11
-28.095
 20
287
 21
285.9
  0
LINE
  8
0
 10
-28.095
 11
-28.9
 20
285.9
 21
285.095
  0
LINE
  8
0
 10
-28.9
 11
-30
 20
285.095
 21
284.8
  0
LINE
  8
0
 10
-30
 11
-31.1
 20
284.8
 21
285.095
  0
LINE
  8
0
 10
-31.1
 11
-31.905
 20
285.095
 21
285.9
  0
LINE
  8
0
 10
-31.905
 11
-32.2
 20
285.9
 21
287
  0
LINE
  8
0
 10
27.8
 11
28.095
 20
287
 21
288.1
  0
LINE
  8
0
 10
28.095
 11
28.9
 20
288.1
 21
288.905
  0
LINE
  8
0
 10
28.9
 11
30
 20
288.905
 21
289.2
  0
LINE
  8
0
 10
30
 11
31.1
 20
289.2
 21
288.905
  0
LINE
  8
0
 10
31.1
 11
31.905
 20
288.905
 21
288.1
  0
LINE
  8
0
 10
31.905
 11
32.2
 20
288.1
 21
287
  0
LINE
  8
0
 10
32.2
 11
31.905
 20
287
 21
285.9
  0
LINE
  8
0
 10
31.905
 11
31.1
 20
285.9
 21
285.095
  0
LINE
  8
0
 10
31.1
 11
30
 20
285.095
 21
284.8
  0
LINE
  8
0
 10
30
 11
28.9
 20
284.8
 21
285.095
  0
LINE
  8
0
 10
28.9
 11
28.095
 20
285.095
 21
285.9
  0
LINE
  8
0
 10
28.095
 11
27.8
 20
285.9
 21
287
  0
LINE
  8
0
 10
231.349
 11
231.644
 20
-169.481
 21
-168.381
  0
LINE
  8
0
 10
231.644
 11
232.449
 20
-168.381
 21
-167.576
  0
LINE
  8
0
 10
232.449
 11
233.549
 20
-167.576
 21
-167.281
  0
LINE
  8
0
 10
233.549
 11
234.649
 20
-167.281
 21
-167.576
  0
LINE
  8
0
 10
234.649
 11
235.455
 20
-167.576
 21
-168.381
  0
LINE
  8
0
 10
235.455
 11
235.749
 20
-168.381
 21
-169.481
  0
LINE
  8
0
 10
235.749
 11
235.455
 20
-169.481
 21
-170.581
  0
LINE
  8
0
 10
235.455
 11
234.649
 20
-170.581
 21
-171.386
  0
LINE
  8
0
 10
234.649
 11
233.549
 20
-171.386
 21
-171.681
  0
LINE
  8
0
 10
233.549
 11
232.449
 20
-171.681
 21
-171.386
  0
LINE
  8
0
 10
232.449
 11
231.644
 20
-171.386
 21
-170.581
  0
LINE
  8
0
 10
231.644
 11
231.349
 20
-170.581
 21
-169.481
  0
LINE
  8
0
 10
261.349
 11
261.644
 20
-117.519
 21
-116.419
  0
LINE
  8
0
 10
261.644
 11
262.449
 20
-116.419
 21
-115.614
  0
LINE
  8
0
 10
262.449
 11
263.549
 20
-115.614
 21
-115.319
  0
LINE
  8
0
 10
263.549
 11
264.649
 20
-115.319
 21
-115.614
  0
LINE
  8
0
 10
264.649
 11
265.455
 20
-115.614
 21
-116.419
  0
LINE
  8
0
 10
265.455
 11
265.749
 20
-116.419
 21
-117.519
  0
LINE
  8
0
 10
265.749
 11
265.455
 20
-117.519
 21
-118.619
  0
LINE
  8
0
 10
265.455
 11
264.649
 20
-118.619
 21
-119.424
  0
LINE
  8
0
 10
264.649
 11
263.549
 20
-119.424
 21
-119.719
  0
LINE
  8
0
 10
263.549
 11
262.449
 20
-119.719
 21
-119.424
  0
LINE
  8
0
 10
262.449
 11
261.644
 20
-119.424
 21
-118.619
  0
LINE
  8
0
 10
261.644
 11
261.349
 20
-118.619
 21
-117.519
  0
ENDSEC
  0
SECTION
  2
OBJECTS
  0
DICTIONARY
  0
ENDSEC
  0
EOF
