solid OpenSCAD_Model
  facet normal -1 0 0
    outer loop
      vertex -282.24 -99.146 12
      vertex -282.24 -96.854 0
      vertex -282.24 -99.146 0
    endloop
  endfacet
  facet normal -1 0 0
    outer loop
      vertex -282.24 -99.146 12
      vertex -282.24 -96.854 12
      vertex -282.24 -96.854 0
    endloop
  endfacet
  facet normal 0 -1 0
    outer loop
      vertex 227.453 -194.04 0
      vertex -227.453 -194.04 12
      vertex -227.453 -194.04 0
    endloop
  endfacet
  facet normal 0 -1 0
    outer loop
      vertex 227.453 -194.04 0
      vertex 227.453 -194.04 12
      vertex -227.453 -194.04 12
    endloop
  endfacet
  facet normal 0 0 -1
    outer loop
      vertex -264.649 -119.424 0
      vertex -263.549 -119.719 0
      vertex -235.749 -169.481 0
    endloop
  endfacet
  facet normal 0 0 -1
    outer loop
      vertex -227.453 -194.04 0
      vertex -231.644 -170.581 0
      vertex -231.349 -169.481 0
    endloop
  endfacet
  facet normal -0 0 -1
    outer loop
      vertex -265.455 -116.419 0
      vertex -265.749 -117.519 0
      vertex -282.24 -99.146 0
    endloop
  endfacet
  facet normal 0 0 -1
    outer loop
      vertex -235.749 -169.481 0
      vertex -265.455 -118.619 0
      vertex -264.649 -119.424 0
    endloop
  endfacet
  facet normal -0 -0 -1
    outer loop
      vertex -265.749 -117.519 0
      vertex -265.455 -118.619 0
      vertex -282.24 -99.146 0
    endloop
  endfacet
  facet normal -0 -0 -1
    outer loop
      vertex -265.455 -118.619 0
      vertex -227.453 -194.04 0
      vertex -282.24 -99.146 0
    endloop
  endfacet
  facet normal 0 0 -1
    outer loop
      vertex -263.549 -119.719 0
      vertex -262.449 -119.424 0
      vertex -235.455 -168.381 0
    endloop
  endfacet
  facet normal 0 0 -1
    outer loop
      vertex -282.24 -96.854 0
      vertex -31.1 285.095 0
      vertex -262.449 -115.614 0
    endloop
  endfacet
  facet normal 0 0 -1
    outer loop
      vertex -282.24 -96.854 0
      vertex -56.5803 294 0
      vertex -31.1 285.095 0
    endloop
  endfacet
  facet normal 0 0 -1
    outer loop
      vertex -235.455 -168.381 0
      vertex -262.449 -119.424 0
      vertex -234.649 -167.576 0
    endloop
  endfacet
  facet normal 0 0 -1
    outer loop
      vertex -282.24 -96.854 0
      vertex -263.549 -115.319 0
      vertex -282.24 -99.146 0
    endloop
  endfacet
  facet normal 0 0 -1
    outer loop
      vertex -262.449 -115.614 0
      vertex -31.1 285.095 0
      vertex -261.644 -116.419 0
    endloop
  endfacet
  facet normal 0 0 -1
    outer loop
      vertex -262.449 -115.614 0
      vertex -263.549 -115.319 0
      vertex -282.24 -96.854 0
    endloop
  endfacet
  facet normal -0 0 -1
    outer loop
      vertex -263.549 -115.319 0
      vertex -264.649 -115.614 0
      vertex -282.24 -99.146 0
    endloop
  endfacet
  facet normal -0 0 -1
    outer loop
      vertex -264.649 -115.614 0
      vertex -265.455 -116.419 0
      vertex -282.24 -99.146 0
    endloop
  endfacet
  facet normal -0 0 -1
    outer loop
      vertex -235.455 -168.381 0
      vertex -235.749 -169.481 0
      vertex -263.549 -119.719 0
    endloop
  endfacet
  facet normal 0 0 -1
    outer loop
      vertex 227.453 -194.04 0
      vertex -227.453 -194.04 0
      vertex -231.349 -169.481 0
    endloop
  endfacet
  facet normal -0 -0 -1
    outer loop
      vertex -235.749 -169.481 0
      vertex -235.455 -170.581 0
      vertex -265.455 -118.619 0
    endloop
  endfacet
  facet normal -0 -0 -1
    outer loop
      vertex -235.455 -170.581 0
      vertex -227.453 -194.04 0
      vertex -265.455 -118.619 0
    endloop
  endfacet
  facet normal -0 -0 -1
    outer loop
      vertex -234.649 -171.386 0
      vertex -227.453 -194.04 0
      vertex -235.455 -170.581 0
    endloop
  endfacet
  facet normal 0 0 -1
    outer loop
      vertex -227.453 -194.04 0
      vertex -233.549 -171.681 0
      vertex -232.449 -171.386 0
    endloop
  endfacet
  facet normal -0 -0 -1
    outer loop
      vertex -233.549 -171.681 0
      vertex -227.453 -194.04 0
      vertex -234.649 -171.386 0
    endloop
  endfacet
  facet normal 0 0 -1
    outer loop
      vertex -227.453 -194.04 0
      vertex -232.449 -171.386 0
      vertex -231.644 -170.581 0
    endloop
  endfacet
  facet normal 0 0 -1
    outer loop
      vertex -231.349 -169.481 0
      vertex 231.644 -168.381 0
      vertex 231.349 -169.481 0
    endloop
  endfacet
  facet normal 0 0 -1
    outer loop
      vertex -261.644 -116.419 0
      vertex -231.644 -168.381 0
      vertex -232.449 -167.576 0
    endloop
  endfacet
  facet normal 0 0 -1
    outer loop
      vertex 227.453 -194.04 0
      vertex -231.349 -169.481 0
      vertex 231.349 -169.481 0
    endloop
  endfacet
  facet normal 0 0 -1
    outer loop
      vertex -261.644 -118.619 0
      vertex -261.349 -117.519 0
      vertex -233.549 -167.281 0
    endloop
  endfacet
  facet normal 0 0 -1
    outer loop
      vertex -231.349 -169.481 0
      vertex -231.644 -168.381 0
      vertex 231.644 -168.381 0
    endloop
  endfacet
  facet normal 0 0 -1
    outer loop
      vertex -232.449 -167.576 0
      vertex -261.349 -117.519 0
      vertex -261.644 -116.419 0
    endloop
  endfacet
  facet normal 0 -0 -1
    outer loop
      vertex -261.644 -118.619 0
      vertex -234.649 -167.576 0
      vertex -262.449 -119.424 0
    endloop
  endfacet
  facet normal 0 0 -1
    outer loop
      vertex -233.549 -167.281 0
      vertex -261.349 -117.519 0
      vertex -232.449 -167.576 0
    endloop
  endfacet
  facet normal 0 0 -1
    outer loop
      vertex -234.649 -167.576 0
      vertex -261.644 -118.619 0
      vertex -233.549 -167.281 0
    endloop
  endfacet
  facet normal 0 0 -1
    outer loop
      vertex -261.644 -116.419 0
      vertex -30 284.8 0
      vertex -231.644 -168.381 0
    endloop
  endfacet
  facet normal 0 0 -1
    outer loop
      vertex -56.5803 294 0
      vertex -31.9053 285.9 0
      vertex -31.1 285.095 0
    endloop
  endfacet
  facet normal 0 0 -1
    outer loop
      vertex -31.9053 285.9 0
      vertex -56.5803 294 0
      vertex -32.2 287 0
    endloop
  endfacet
  facet normal 0 0 -1
    outer loop
      vertex -261.644 -116.419 0
      vertex -31.1 285.095 0
      vertex -30 284.8 0
    endloop
  endfacet
  facet normal 0 0 -1
    outer loop
      vertex -30 284.8 0
      vertex -28.9 285.095 0
      vertex 28.9 285.095 0
    endloop
  endfacet
  facet normal 0 0 -1
    outer loop
      vertex -28.0947 285.9 0
      vertex 27.8 287 0
      vertex 28.0947 285.9 0
    endloop
  endfacet
  facet normal 0 0 -1
    outer loop
      vertex -28.9 285.095 0
      vertex -28.0947 285.9 0
      vertex 28.0947 285.9 0
    endloop
  endfacet
  facet normal 0 0 -1
    outer loop
      vertex -28.0947 285.9 0
      vertex -27.8 287 0
      vertex 27.8 287 0
    endloop
  endfacet
  facet normal 0 0 -1
    outer loop
      vertex -27.8 287 0
      vertex -28.0947 288.1 0
      vertex 27.8 287 0
    endloop
  endfacet
  facet normal 0 0 -1
    outer loop
      vertex -30 289.2 0
      vertex 30 289.2 0
      vertex 28.9 288.905 0
    endloop
  endfacet
  facet normal 0 0 -1
    outer loop
      vertex -32.2 287 0
      vertex -56.5803 294 0
      vertex -31.9053 288.1 0
    endloop
  endfacet
  facet normal 0 0 -1
    outer loop
      vertex -30 289.2 0
      vertex -56.5803 294 0
      vertex 30 289.2 0
    endloop
  endfacet
  facet normal 0 0 -1
    outer loop
      vertex -31.1 288.905 0
      vertex -56.5803 294 0
      vertex -30 289.2 0
    endloop
  endfacet
  facet normal 0 0 -1
    outer loop
      vertex -31.9053 288.1 0
      vertex -56.5803 294 0
      vertex -31.1 288.905 0
    endloop
  endfacet
  facet normal 0 -0 -1
    outer loop
      vertex -30 284.8 0
      vertex 30 284.8 0
      vertex -231.644 -168.381 0
    endloop
  endfacet
  facet normal 0 -0 -1
    outer loop
      vertex 28.0947 285.9 0
      vertex 28.9 285.095 0
      vertex -28.9 285.095 0
    endloop
  endfacet
  facet normal 0 -0 -1
    outer loop
      vertex 28.9 285.095 0
      vertex 30 284.8 0
      vertex -30 284.8 0
    endloop
  endfacet
  facet normal 0 0 -1
    outer loop
      vertex 31.9053 288.1 0
      vertex 56.5803 294 0
      vertex 32.2 287 0
    endloop
  endfacet
  facet normal 0 0 -1
    outer loop
      vertex 31.1 285.095 0
      vertex 262.449 -115.614 0
      vertex 261.644 -116.419 0
    endloop
  endfacet
  facet normal 0 0 -1
    outer loop
      vertex 31.1 285.095 0
      vertex 56.5803 294 0
      vertex 282.24 -96.854 0
    endloop
  endfacet
  facet normal 0 -0 -1
    outer loop
      vertex 31.9053 285.9 0
      vertex 56.5803 294 0
      vertex 31.1 285.095 0
    endloop
  endfacet
  facet normal 0 -0 -1
    outer loop
      vertex 32.2 287 0
      vertex 56.5803 294 0
      vertex 31.9053 285.9 0
    endloop
  endfacet
  facet normal 0 0 -1
    outer loop
      vertex -28.9 288.905 0
      vertex 28.0947 288.1 0
      vertex -28.0947 288.1 0
    endloop
  endfacet
  facet normal 0 0 -1
    outer loop
      vertex 31.9053 288.1 0
      vertex 31.1 288.905 0
      vertex 56.5803 294 0
    endloop
  endfacet
  facet normal 0 0 -1
    outer loop
      vertex -28.9 288.905 0
      vertex -30 289.2 0
      vertex 28.9 288.905 0
    endloop
  endfacet
  facet normal 0 0 -1
    outer loop
      vertex 31.1 288.905 0
      vertex 30 289.2 0
      vertex 56.5803 294 0
    endloop
  endfacet
  facet normal 0 0 -1
    outer loop
      vertex 30 289.2 0
      vertex -56.5803 294 0
      vertex 56.5803 294 0
    endloop
  endfacet
  facet normal 0 0 -1
    outer loop
      vertex -28.9 288.905 0
      vertex 28.9 288.905 0
      vertex 28.0947 288.1 0
    endloop
  endfacet
  facet normal 0 0 -1
    outer loop
      vertex -28.0947 288.1 0
      vertex 28.0947 288.1 0
      vertex 27.8 287 0
    endloop
  endfacet
  facet normal 0 0 -1
    outer loop
      vertex 227.453 -194.04 0
      vertex 231.349 -169.481 0
      vertex 231.644 -170.581 0
    endloop
  endfacet
  facet normal 0 0 -1
    outer loop
      vertex -231.644 -168.381 0
      vertex 30 284.8 0
      vertex 231.644 -168.381 0
    endloop
  endfacet
  facet normal 0 0 -1
    outer loop
      vertex 227.453 -194.04 0
      vertex 231.644 -170.581 0
      vertex 232.449 -171.386 0
    endloop
  endfacet
  facet normal 0 0 -1
    outer loop
      vertex 227.453 -194.04 0
      vertex 232.449 -171.386 0
      vertex 233.549 -171.681 0
    endloop
  endfacet
  facet normal 0 0 -1
    outer loop
      vertex 227.453 -194.04 0
      vertex 233.549 -171.681 0
      vertex 234.649 -171.386 0
    endloop
  endfacet
  facet normal 0 0 -1
    outer loop
      vertex 227.453 -194.04 0
      vertex 234.649 -171.386 0
      vertex 235.455 -170.581 0
    endloop
  endfacet
  facet normal 0 0 -1
    outer loop
      vertex 227.453 -194.04 0
      vertex 265.455 -118.619 0
      vertex 282.24 -99.146 0
    endloop
  endfacet
  facet normal 0 0 -1
    outer loop
      vertex 235.455 -168.381 0
      vertex 262.449 -119.424 0
      vertex 263.549 -119.719 0
    endloop
  endfacet
  facet normal 0 0 -1
    outer loop
      vertex 233.549 -167.281 0
      vertex 261.349 -117.519 0
      vertex 261.644 -118.619 0
    endloop
  endfacet
  facet normal 0 0 -1
    outer loop
      vertex 235.455 -168.381 0
      vertex 263.549 -119.719 0
      vertex 235.749 -169.481 0
    endloop
  endfacet
  facet normal 0 0 -1
    outer loop
      vertex 263.549 -115.319 0
      vertex 282.24 -99.146 0
      vertex 264.649 -115.614 0
    endloop
  endfacet
  facet normal 0 0 -1
    outer loop
      vertex 234.649 -167.576 0
      vertex 262.449 -119.424 0
      vertex 235.455 -168.381 0
    endloop
  endfacet
  facet normal 0 0 -1
    outer loop
      vertex 233.549 -167.281 0
      vertex 261.644 -118.619 0
      vertex 234.649 -167.576 0
    endloop
  endfacet
  facet normal 0 0 -1
    outer loop
      vertex 231.644 -168.381 0
      vertex 261.644 -116.419 0
      vertex 261.349 -117.519 0
    endloop
  endfacet
  facet normal 0 0 -1
    outer loop
      vertex 261.349 -117.519 0
      vertex 233.549 -167.281 0
      vertex 232.449 -167.576 0
    endloop
  endfacet
  facet normal 0 0 -1
    outer loop
      vertex 231.644 -168.381 0
      vertex 261.349 -117.519 0
      vertex 232.449 -167.576 0
    endloop
  endfacet
  facet normal 0 0 -1
    outer loop
      vertex 30 284.8 0
      vertex 31.1 285.095 0
      vertex 261.644 -116.419 0
    endloop
  endfacet
  facet normal 0 0 -1
    outer loop
      vertex 234.649 -167.576 0
      vertex 261.644 -118.619 0
      vertex 262.449 -119.424 0
    endloop
  endfacet
  facet normal 0 -0 -1
    outer loop
      vertex 235.749 -169.481 0
      vertex 264.649 -119.424 0
      vertex 235.455 -170.581 0
    endloop
  endfacet
  facet normal 0 0 -1
    outer loop
      vertex 235.749 -169.481 0
      vertex 263.549 -119.719 0
      vertex 264.649 -119.424 0
    endloop
  endfacet
  facet normal 0 0 -1
    outer loop
      vertex 235.455 -170.581 0
      vertex 264.649 -119.424 0
      vertex 265.455 -118.619 0
    endloop
  endfacet
  facet normal 0 -0 -1
    outer loop
      vertex 235.455 -170.581 0
      vertex 265.455 -118.619 0
      vertex 227.453 -194.04 0
    endloop
  endfacet
  facet normal 0 0 -1
    outer loop
      vertex 265.455 -118.619 0
      vertex 265.749 -117.519 0
      vertex 282.24 -99.146 0
    endloop
  endfacet
  facet normal 0 0 -1
    outer loop
      vertex 265.749 -117.519 0
      vertex 265.455 -116.419 0
      vertex 282.24 -99.146 0
    endloop
  endfacet
  facet normal 0 0 -1
    outer loop
      vertex 263.549 -115.319 0
      vertex 282.24 -96.854 0
      vertex 282.24 -99.146 0
    endloop
  endfacet
  facet normal 0 0 -1
    outer loop
      vertex 264.649 -115.614 0
      vertex 282.24 -99.146 0
      vertex 265.455 -116.419 0
    endloop
  endfacet
  facet normal 0 0 -1
    outer loop
      vertex 262.449 -115.614 0
      vertex 31.1 285.095 0
      vertex 282.24 -96.854 0
    endloop
  endfacet
  facet normal 0 0 -1
    outer loop
      vertex 262.449 -115.614 0
      vertex 282.24 -96.854 0
      vertex 263.549 -115.319 0
    endloop
  endfacet
  facet normal 0 0 -1
    outer loop
      vertex 30 284.8 0
      vertex 261.644 -116.419 0
      vertex 231.644 -168.381 0
    endloop
  endfacet
  facet normal 0 1 0
    outer loop
      vertex -56.5803 294 12
      vertex 56.5803 294 0
      vertex -56.5803 294 0
    endloop
  endfacet
  facet normal -0 1 0
    outer loop
      vertex -56.5803 294 12
      vertex 56.5803 294 12
      vertex 56.5803 294 0
    endloop
  endfacet
  facet normal 0 0 1
    outer loop
      vertex -263.549 -115.319 12
      vertex -282.24 -96.854 12
      vertex -282.24 -99.146 12
    endloop
  endfacet
  facet normal 0 0 1
    outer loop
      vertex -282.24 -99.146 12
      vertex -265.455 -116.419 12
      vertex -264.649 -115.614 12
    endloop
  endfacet
  facet normal 0 0 1
    outer loop
      vertex 56.5803 294 12
      vertex -56.5803 294 12
      vertex 30 289.2 12
    endloop
  endfacet
  facet normal 0 -0 1
    outer loop
      vertex -265.749 -117.519 12
      vertex -265.455 -116.419 12
      vertex -282.24 -99.146 12
    endloop
  endfacet
  facet normal 0 0 1
    outer loop
      vertex -282.24 -99.146 12
      vertex -264.649 -115.614 12
      vertex -263.549 -115.319 12
    endloop
  endfacet
  facet normal -0 0 1
    outer loop
      vertex -261.644 -116.419 12
      vertex -231.644 -168.381 12
      vertex -30 284.8 12
    endloop
  endfacet
  facet normal 0 0 1
    outer loop
      vertex -231.349 -169.481 12
      vertex 227.453 -194.04 12
      vertex 231.349 -169.481 12
    endloop
  endfacet
  facet normal 0 0 1
    outer loop
      vertex -262.449 -115.614 12
      vertex -282.24 -96.854 12
      vertex -263.549 -115.319 12
    endloop
  endfacet
  facet normal -0 0 1
    outer loop
      vertex -262.449 -115.614 12
      vertex -261.644 -116.419 12
      vertex -31.1 285.095 12
    endloop
  endfacet
  facet normal 0 0 1
    outer loop
      vertex -56.5803 294 12
      vertex -282.24 -96.854 12
      vertex -31.1 285.095 12
    endloop
  endfacet
  facet normal 0 0 1
    outer loop
      vertex -232.449 -167.576 12
      vertex -261.349 -117.519 12
      vertex -261.644 -118.619 12
    endloop
  endfacet
  facet normal 0 0 1
    outer loop
      vertex -233.549 -167.281 12
      vertex -261.644 -118.619 12
      vertex -262.449 -119.424 12
    endloop
  endfacet
  facet normal 0 0 1
    outer loop
      vertex -234.649 -167.576 12
      vertex -262.449 -119.424 12
      vertex -263.549 -119.719 12
    endloop
  endfacet
  facet normal 0 0 1
    outer loop
      vertex -235.749 -169.481 12
      vertex -263.549 -119.719 12
      vertex -264.649 -119.424 12
    endloop
  endfacet
  facet normal 0 0 1
    outer loop
      vertex -235.749 -169.481 12
      vertex -264.649 -119.424 12
      vertex -235.455 -170.581 12
    endloop
  endfacet
  facet normal 0 0 1
    outer loop
      vertex -227.453 -194.04 12
      vertex -265.455 -118.619 12
      vertex -282.24 -99.146 12
    endloop
  endfacet
  facet normal 0 0 1
    outer loop
      vertex -265.455 -118.619 12
      vertex -265.749 -117.519 12
      vertex -282.24 -99.146 12
    endloop
  endfacet
  facet normal 0 0 1
    outer loop
      vertex -231.644 -168.381 12
      vertex -261.644 -116.419 12
      vertex -261.349 -117.519 12
    endloop
  endfacet
  facet normal 0 0 1
    outer loop
      vertex -235.455 -168.381 12
      vertex -263.549 -119.719 12
      vertex -235.749 -169.481 12
    endloop
  endfacet
  facet normal 0 0 1
    outer loop
      vertex -234.649 -167.576 12
      vertex -263.549 -119.719 12
      vertex -235.455 -168.381 12
    endloop
  endfacet
  facet normal 0 0 1
    outer loop
      vertex -261.644 -118.619 12
      vertex -233.549 -167.281 12
      vertex -232.449 -167.576 12
    endloop
  endfacet
  facet normal 0 0 1
    outer loop
      vertex -233.549 -167.281 12
      vertex -262.449 -119.424 12
      vertex -234.649 -167.576 12
    endloop
  endfacet
  facet normal 0 0 1
    outer loop
      vertex -261.349 -117.519 12
      vertex -232.449 -167.576 12
      vertex -231.644 -168.381 12
    endloop
  endfacet
  facet normal 0 0 1
    outer loop
      vertex 231.644 -168.381 12
      vertex -231.644 -168.381 12
      vertex -231.349 -169.481 12
    endloop
  endfacet
  facet normal 0 0 1
    outer loop
      vertex 227.453 -194.04 12
      vertex -231.349 -169.481 12
      vertex -227.453 -194.04 12
    endloop
  endfacet
  facet normal 0 0 1
    outer loop
      vertex -231.349 -169.481 12
      vertex -231.644 -170.581 12
      vertex -227.453 -194.04 12
    endloop
  endfacet
  facet normal 0 0 1
    outer loop
      vertex -231.644 -170.581 12
      vertex -232.449 -171.386 12
      vertex -227.453 -194.04 12
    endloop
  endfacet
  facet normal 0 0 1
    outer loop
      vertex -232.449 -171.386 12
      vertex -233.549 -171.681 12
      vertex -227.453 -194.04 12
    endloop
  endfacet
  facet normal 0 0 1
    outer loop
      vertex -233.549 -171.681 12
      vertex -234.649 -171.386 12
      vertex -227.453 -194.04 12
    endloop
  endfacet
  facet normal 0 0 1
    outer loop
      vertex -234.649 -171.386 12
      vertex -235.455 -170.581 12
      vertex -227.453 -194.04 12
    endloop
  endfacet
  facet normal 0 0 1
    outer loop
      vertex -227.453 -194.04 12
      vertex -235.455 -170.581 12
      vertex -265.455 -118.619 12
    endloop
  endfacet
  facet normal 0 0 1
    outer loop
      vertex -235.455 -170.581 12
      vertex -264.649 -119.424 12
      vertex -265.455 -118.619 12
    endloop
  endfacet
  facet normal -0 0 1
    outer loop
      vertex -282.24 -96.854 12
      vertex -262.449 -115.614 12
      vertex -31.1 285.095 12
    endloop
  endfacet
  facet normal 0 0 1
    outer loop
      vertex -32.2 287 12
      vertex -56.5803 294 12
      vertex -31.9053 285.9 12
    endloop
  endfacet
  facet normal 0 0 1
    outer loop
      vertex -31.9053 288.1 12
      vertex -56.5803 294 12
      vertex -32.2 287 12
    endloop
  endfacet
  facet normal 0 0 1
    outer loop
      vertex -31.1 288.905 12
      vertex -56.5803 294 12
      vertex -31.9053 288.1 12
    endloop
  endfacet
  facet normal 0 0 1
    outer loop
      vertex -56.5803 294 12
      vertex -30 289.2 12
      vertex 30 289.2 12
    endloop
  endfacet
  facet normal 0 0 1
    outer loop
      vertex -30 289.2 12
      vertex -56.5803 294 12
      vertex -31.1 288.905 12
    endloop
  endfacet
  facet normal 0 0 1
    outer loop
      vertex -30 289.2 12
      vertex -28.9 288.905 12
      vertex 28.9 288.905 12
    endloop
  endfacet
  facet normal 0 0 1
    outer loop
      vertex -28.9 288.905 12
      vertex -28.0947 288.1 12
      vertex 28.0947 288.1 12
    endloop
  endfacet
  facet normal 0 0 1
    outer loop
      vertex -28.0947 288.1 12
      vertex -27.8 287 12
      vertex 27.8 287 12
    endloop
  endfacet
  facet normal -0 0 1
    outer loop
      vertex -28.0947 285.9 12
      vertex 28.9 285.095 12
      vertex 28.0947 285.9 12
    endloop
  endfacet
  facet normal 0 0 1
    outer loop
      vertex 28.0947 285.9 12
      vertex -27.8 287 12
      vertex -28.0947 285.9 12
    endloop
  endfacet
  facet normal 0 0 1
    outer loop
      vertex -56.5803 294 12
      vertex -31.1 285.095 12
      vertex -31.9053 285.9 12
    endloop
  endfacet
  facet normal 0 0 1
    outer loop
      vertex -31.1 285.095 12
      vertex -261.644 -116.419 12
      vertex -30 284.8 12
    endloop
  endfacet
  facet normal -0 0 1
    outer loop
      vertex -30 284.8 12
      vertex -231.644 -168.381 12
      vertex 30 284.8 12
    endloop
  endfacet
  facet normal 0 0 1
    outer loop
      vertex 27.8 287 12
      vertex -27.8 287 12
      vertex 28.0947 285.9 12
    endloop
  endfacet
  facet normal 0 0 1
    outer loop
      vertex 28.0947 288.1 12
      vertex -28.0947 288.1 12
      vertex 27.8 287 12
    endloop
  endfacet
  facet normal 0 0 1
    outer loop
      vertex 28.9 288.905 12
      vertex -28.9 288.905 12
      vertex 28.0947 288.1 12
    endloop
  endfacet
  facet normal 0 0 1
    outer loop
      vertex 56.5803 294 12
      vertex 30 289.2 12
      vertex 31.1 288.905 12
    endloop
  endfacet
  facet normal 0 0 1
    outer loop
      vertex 30 289.2 12
      vertex -30 289.2 12
      vertex 28.9 288.905 12
    endloop
  endfacet
  facet normal 0 0 1
    outer loop
      vertex 56.5803 294 12
      vertex 31.1 288.905 12
      vertex 31.9053 288.1 12
    endloop
  endfacet
  facet normal 0 0 1
    outer loop
      vertex 56.5803 294 12
      vertex 31.9053 288.1 12
      vertex 32.2 287 12
    endloop
  endfacet
  facet normal 0 0 1
    outer loop
      vertex 56.5803 294 12
      vertex 31.1 285.095 12
      vertex 282.24 -96.854 12
    endloop
  endfacet
  facet normal -0 0 1
    outer loop
      vertex 32.2 287 12
      vertex 31.9053 285.9 12
      vertex 56.5803 294 12
    endloop
  endfacet
  facet normal -0 0 1
    outer loop
      vertex 31.9053 285.9 12
      vertex 31.1 285.095 12
      vertex 56.5803 294 12
    endloop
  endfacet
  facet normal 0 0 1
    outer loop
      vertex 227.453 -194.04 12
      vertex 231.644 -170.581 12
      vertex 231.349 -169.481 12
    endloop
  endfacet
  facet normal 0 0 1
    outer loop
      vertex -30 284.8 12
      vertex 30 284.8 12
      vertex -28.9 285.095 12
    endloop
  endfacet
  facet normal 0 0 1
    outer loop
      vertex 30 284.8 12
      vertex 28.9 285.095 12
      vertex -28.9 285.095 12
    endloop
  endfacet
  facet normal 0 0 1
    outer loop
      vertex 28.9 285.095 12
      vertex -28.0947 285.9 12
      vertex -28.9 285.095 12
    endloop
  endfacet
  facet normal -0 0 1
    outer loop
      vertex -231.644 -168.381 12
      vertex 231.644 -168.381 12
      vertex 30 284.8 12
    endloop
  endfacet
  facet normal -0 0 1
    outer loop
      vertex -231.349 -169.481 12
      vertex 231.349 -169.481 12
      vertex 231.644 -168.381 12
    endloop
  endfacet
  facet normal 0 0 1
    outer loop
      vertex 227.453 -194.04 12
      vertex 265.455 -118.619 12
      vertex 235.455 -170.581 12
    endloop
  endfacet
  facet normal 0 0 1
    outer loop
      vertex 30 284.8 12
      vertex 231.644 -168.381 12
      vertex 261.644 -116.419 12
    endloop
  endfacet
  facet normal 0 -0 1
    outer loop
      vertex 232.449 -167.576 12
      vertex 261.349 -117.519 12
      vertex 231.644 -168.381 12
    endloop
  endfacet
  facet normal 0 -0 1
    outer loop
      vertex 233.549 -167.281 12
      vertex 261.644 -118.619 12
      vertex 232.449 -167.576 12
    endloop
  endfacet
  facet normal 0 0 1
    outer loop
      vertex 262.449 -119.424 12
      vertex 261.644 -118.619 12
      vertex 233.549 -167.281 12
    endloop
  endfacet
  facet normal 0 0 1
    outer loop
      vertex 227.453 -194.04 12
      vertex 235.455 -170.581 12
      vertex 234.649 -171.386 12
    endloop
  endfacet
  facet normal -0 0 1
    outer loop
      vertex 234.649 -167.576 12
      vertex 235.455 -168.381 12
      vertex 263.549 -119.719 12
    endloop
  endfacet
  facet normal 0 0 1
    outer loop
      vertex 227.453 -194.04 12
      vertex 234.649 -171.386 12
      vertex 233.549 -171.681 12
    endloop
  endfacet
  facet normal 0 0 1
    outer loop
      vertex 227.453 -194.04 12
      vertex 233.549 -171.681 12
      vertex 232.449 -171.386 12
    endloop
  endfacet
  facet normal 0 0 1
    outer loop
      vertex 227.453 -194.04 12
      vertex 232.449 -171.386 12
      vertex 231.644 -170.581 12
    endloop
  endfacet
  facet normal -0 0 1
    outer loop
      vertex 30 284.8 12
      vertex 261.644 -116.419 12
      vertex 31.1 285.095 12
    endloop
  endfacet
  facet normal 0 0 1
    outer loop
      vertex 261.644 -118.619 12
      vertex 261.349 -117.519 12
      vertex 232.449 -167.576 12
    endloop
  endfacet
  facet normal 0 0 1
    outer loop
      vertex 282.24 -96.854 12
      vertex 262.449 -115.614 12
      vertex 263.549 -115.319 12
    endloop
  endfacet
  facet normal 0 -0 1
    outer loop
      vertex 261.349 -117.519 12
      vertex 261.644 -116.419 12
      vertex 231.644 -168.381 12
    endloop
  endfacet
  facet normal 0 -0 1
    outer loop
      vertex 282.24 -99.146 12
      vertex 282.24 -96.854 12
      vertex 263.549 -115.319 12
    endloop
  endfacet
  facet normal 0 -0 1
    outer loop
      vertex 261.644 -116.419 12
      vertex 262.449 -115.614 12
      vertex 31.1 285.095 12
    endloop
  endfacet
  facet normal 0 -0 1
    outer loop
      vertex 262.449 -115.614 12
      vertex 282.24 -96.854 12
      vertex 31.1 285.095 12
    endloop
  endfacet
  facet normal 0 0 1
    outer loop
      vertex 282.24 -99.146 12
      vertex 263.549 -115.319 12
      vertex 264.649 -115.614 12
    endloop
  endfacet
  facet normal 0 0 1
    outer loop
      vertex 282.24 -99.146 12
      vertex 264.649 -115.614 12
      vertex 265.455 -116.419 12
    endloop
  endfacet
  facet normal 0 0 1
    outer loop
      vertex 282.24 -99.146 12
      vertex 265.455 -116.419 12
      vertex 265.749 -117.519 12
    endloop
  endfacet
  facet normal 0 0 1
    outer loop
      vertex 282.24 -99.146 12
      vertex 265.749 -117.519 12
      vertex 265.455 -118.619 12
    endloop
  endfacet
  facet normal -0 0 1
    outer loop
      vertex 235.455 -168.381 12
      vertex 235.749 -169.481 12
      vertex 263.549 -119.719 12
    endloop
  endfacet
  facet normal 0 0 1
    outer loop
      vertex 282.24 -99.146 12
      vertex 265.455 -118.619 12
      vertex 227.453 -194.04 12
    endloop
  endfacet
  facet normal 0 0 1
    outer loop
      vertex 264.649 -119.424 12
      vertex 235.749 -169.481 12
      vertex 235.455 -170.581 12
    endloop
  endfacet
  facet normal -0 0 1
    outer loop
      vertex 264.649 -119.424 12
      vertex 235.455 -170.581 12
      vertex 265.455 -118.619 12
    endloop
  endfacet
  facet normal 0 0 1
    outer loop
      vertex 264.649 -119.424 12
      vertex 263.549 -119.719 12
      vertex 235.749 -169.481 12
    endloop
  endfacet
  facet normal 0 0 1
    outer loop
      vertex 263.549 -119.719 12
      vertex 262.449 -119.424 12
      vertex 234.649 -167.576 12
    endloop
  endfacet
  facet normal 0 0 1
    outer loop
      vertex 262.449 -119.424 12
      vertex 233.549 -167.281 12
      vertex 234.649 -167.576 12
    endloop
  endfacet
  facet normal 1 0 0
    outer loop
      vertex 282.24 -96.854 0
      vertex 282.24 -99.146 12
      vertex 282.24 -99.146 0
    endloop
  endfacet
  facet normal 1 0 -0
    outer loop
      vertex 282.24 -96.854 0
      vertex 282.24 -96.854 12
      vertex 282.24 -99.146 12
    endloop
  endfacet
  facet normal -0.866025 -0.5 0
    outer loop
      vertex -227.453 -194.04 12
      vertex -282.24 -99.146 12
      vertex -282.24 -99.146 0
    endloop
  endfacet
  facet normal -0.866025 -0.5 0
    outer loop
      vertex -227.453 -194.04 0
      vertex -227.453 -194.04 12
      vertex -282.24 -99.146 0
    endloop
  endfacet
  facet normal 0.866025 -0.5 0
    outer loop
      vertex 282.24 -99.146 0
      vertex 227.453 -194.04 12
      vertex 227.453 -194.04 0
    endloop
  endfacet
  facet normal 0.866025 -0.5 0
    outer loop
      vertex 282.24 -99.146 0
      vertex 282.24 -99.146 12
      vertex 227.453 -194.04 12
    endloop
  endfacet
  facet normal -0.866025 0.5 0
    outer loop
      vertex -282.24 -96.854 12
      vertex -56.5803 294 0
      vertex -282.24 -96.854 0
    endloop
  endfacet
  facet normal -0.866025 0.5 0
    outer loop
      vertex -282.24 -96.854 12
      vertex -56.5803 294 12
      vertex -56.5803 294 0
    endloop
  endfacet
  facet normal 0.866025 0.5 0
    outer loop
      vertex 282.24 -96.854 12
      vertex 282.24 -96.854 0
      vertex 56.5803 294 0
    endloop
  endfacet
  facet normal 0.866025 0.5 0
    outer loop
      vertex 56.5803 294 12
      vertex 282.24 -96.854 12
      vertex 56.5803 294 0
    endloop
  endfacet
  facet normal 0.965926 0.258819 -0
    outer loop
      vertex -32.2 287 0
      vertex -32.2 287 12
      vertex -31.9053 285.9 12
    endloop
  endfacet
  facet normal 0.965926 0.258819 -0
    outer loop
      vertex -31.9053 285.9 0
      vertex -32.2 287 0
      vertex -31.9053 285.9 12
    endloop
  endfacet
  facet normal 0.707107 0.707107 -0
    outer loop
      vertex -31.1 285.095 0
      vertex -31.9053 285.9 12
      vertex -31.1 285.095 12
    endloop
  endfacet
  facet normal 0.707107 0.707107 0
    outer loop
      vertex -31.1 285.095 0
      vertex -31.9053 285.9 0
      vertex -31.9053 285.9 12
    endloop
  endfacet
  facet normal 0.965926 -0.258819 0
    outer loop
      vertex -32.2 287 12
      vertex -31.9053 288.1 0
      vertex -31.9053 288.1 12
    endloop
  endfacet
  facet normal 0.965926 -0.258819 0
    outer loop
      vertex -32.2 287 12
      vertex -32.2 287 0
      vertex -31.9053 288.1 0
    endloop
  endfacet
  facet normal -0.707107 0.707107 0
    outer loop
      vertex -28.0947 285.9 0
      vertex -28.9 285.095 12
      vertex -28.0947 285.9 12
    endloop
  endfacet
  facet normal -0.707107 0.707107 0
    outer loop
      vertex -28.0947 285.9 0
      vertex -28.9 285.095 0
      vertex -28.9 285.095 12
    endloop
  endfacet
  facet normal -0.965926 -0.258819 0
    outer loop
      vertex -28.0947 288.1 0
      vertex -27.8 287 0
      vertex -27.8 287 12
    endloop
  endfacet
  facet normal -0.965926 -0.258819 -0
    outer loop
      vertex -28.0947 288.1 12
      vertex -28.0947 288.1 0
      vertex -27.8 287 12
    endloop
  endfacet
  facet normal 0.258819 -0.965926 0
    outer loop
      vertex -31.1 288.905 12
      vertex -30 289.2 0
      vertex -30 289.2 12
    endloop
  endfacet
  facet normal 0.258819 -0.965926 0
    outer loop
      vertex -31.1 288.905 12
      vertex -31.1 288.905 0
      vertex -30 289.2 0
    endloop
  endfacet
  facet normal -0.707107 -0.707107 0
    outer loop
      vertex -28.9 288.905 12
      vertex -28.0947 288.1 0
      vertex -28.0947 288.1 12
    endloop
  endfacet
  facet normal -0.707107 -0.707107 -0
    outer loop
      vertex -28.9 288.905 12
      vertex -28.9 288.905 0
      vertex -28.0947 288.1 0
    endloop
  endfacet
  facet normal 0.707107 -0.707107 0
    outer loop
      vertex -31.9053 288.1 12
      vertex -31.1 288.905 0
      vertex -31.1 288.905 12
    endloop
  endfacet
  facet normal 0.707107 -0.707107 0
    outer loop
      vertex -31.9053 288.1 12
      vertex -31.9053 288.1 0
      vertex -31.1 288.905 0
    endloop
  endfacet
  facet normal 0.258819 0.965926 -0
    outer loop
      vertex -30 284.8 0
      vertex -31.1 285.095 12
      vertex -30 284.8 12
    endloop
  endfacet
  facet normal 0.258819 0.965926 0
    outer loop
      vertex -30 284.8 0
      vertex -31.1 285.095 0
      vertex -31.1 285.095 12
    endloop
  endfacet
  facet normal -0.258819 0.965926 0
    outer loop
      vertex -28.9 285.095 0
      vertex -30 284.8 12
      vertex -28.9 285.095 12
    endloop
  endfacet
  facet normal -0.258819 0.965926 0
    outer loop
      vertex -28.9 285.095 0
      vertex -30 284.8 0
      vertex -30 284.8 12
    endloop
  endfacet
  facet normal -0.965926 0.258819 0
    outer loop
      vertex -27.8 287 0
      vertex -28.0947 285.9 12
      vertex -27.8 287 12
    endloop
  endfacet
  facet normal -0.965926 0.258819 0
    outer loop
      vertex -27.8 287 0
      vertex -28.0947 285.9 0
      vertex -28.0947 285.9 12
    endloop
  endfacet
  facet normal -0.258819 -0.965926 0
    outer loop
      vertex -30 289.2 12
      vertex -28.9 288.905 0
      vertex -28.9 288.905 12
    endloop
  endfacet
  facet normal -0.258819 -0.965926 -0
    outer loop
      vertex -30 289.2 12
      vertex -30 289.2 0
      vertex -28.9 288.905 0
    endloop
  endfacet
  facet normal 0.965926 0.258819 -0
    outer loop
      vertex 27.8 287 0
      vertex 27.8 287 12
      vertex 28.0947 285.9 12
    endloop
  endfacet
  facet normal 0.965926 0.258819 -0
    outer loop
      vertex 28.0947 285.9 0
      vertex 27.8 287 0
      vertex 28.0947 285.9 12
    endloop
  endfacet
  facet normal -0.258819 -0.965926 0
    outer loop
      vertex 30 289.2 12
      vertex 31.1 288.905 0
      vertex 31.1 288.905 12
    endloop
  endfacet
  facet normal -0.258819 -0.965926 -0
    outer loop
      vertex 30 289.2 12
      vertex 30 289.2 0
      vertex 31.1 288.905 0
    endloop
  endfacet
  facet normal 0.707107 0.707107 -0
    outer loop
      vertex 28.9 285.095 0
      vertex 28.0947 285.9 12
      vertex 28.9 285.095 12
    endloop
  endfacet
  facet normal 0.707107 0.707107 0
    outer loop
      vertex 28.9 285.095 0
      vertex 28.0947 285.9 0
      vertex 28.0947 285.9 12
    endloop
  endfacet
  facet normal 0.965926 -0.258819 0
    outer loop
      vertex 27.8 287 12
      vertex 28.0947 288.1 0
      vertex 28.0947 288.1 12
    endloop
  endfacet
  facet normal 0.965926 -0.258819 0
    outer loop
      vertex 27.8 287 12
      vertex 27.8 287 0
      vertex 28.0947 288.1 0
    endloop
  endfacet
  facet normal -0.707107 0.707107 0
    outer loop
      vertex 31.9053 285.9 0
      vertex 31.1 285.095 12
      vertex 31.9053 285.9 12
    endloop
  endfacet
  facet normal -0.707107 0.707107 0
    outer loop
      vertex 31.9053 285.9 0
      vertex 31.1 285.095 0
      vertex 31.1 285.095 12
    endloop
  endfacet
  facet normal 0.258819 0.965926 -0
    outer loop
      vertex 30 284.8 0
      vertex 28.9 285.095 12
      vertex 30 284.8 12
    endloop
  endfacet
  facet normal 0.258819 0.965926 0
    outer loop
      vertex 30 284.8 0
      vertex 28.9 285.095 0
      vertex 28.9 285.095 12
    endloop
  endfacet
  facet normal -0.258819 0.965926 0
    outer loop
      vertex 31.1 285.095 0
      vertex 30 284.8 12
      vertex 31.1 285.095 12
    endloop
  endfacet
  facet normal -0.258819 0.965926 0
    outer loop
      vertex 31.1 285.095 0
      vertex 30 284.8 0
      vertex 30 284.8 12
    endloop
  endfacet
  facet normal -0.965926 -0.258819 0
    outer loop
      vertex 31.9053 288.1 0
      vertex 32.2 287 0
      vertex 32.2 287 12
    endloop
  endfacet
  facet normal -0.965926 -0.258819 -0
    outer loop
      vertex 31.9053 288.1 12
      vertex 31.9053 288.1 0
      vertex 32.2 287 12
    endloop
  endfacet
  facet normal -0.965926 0.258819 0
    outer loop
      vertex 32.2 287 0
      vertex 31.9053 285.9 12
      vertex 32.2 287 12
    endloop
  endfacet
  facet normal -0.965926 0.258819 0
    outer loop
      vertex 32.2 287 0
      vertex 31.9053 285.9 0
      vertex 31.9053 285.9 12
    endloop
  endfacet
  facet normal -0.707107 -0.707107 0
    outer loop
      vertex 31.1 288.905 12
      vertex 31.9053 288.1 0
      vertex 31.9053 288.1 12
    endloop
  endfacet
  facet normal -0.707107 -0.707107 -0
    outer loop
      vertex 31.1 288.905 12
      vertex 31.1 288.905 0
      vertex 31.9053 288.1 0
    endloop
  endfacet
  facet normal 0.707107 -0.707107 0
    outer loop
      vertex 28.0947 288.1 12
      vertex 28.9 288.905 0
      vertex 28.9 288.905 12
    endloop
  endfacet
  facet normal 0.707107 -0.707107 0
    outer loop
      vertex 28.0947 288.1 12
      vertex 28.0947 288.1 0
      vertex 28.9 288.905 0
    endloop
  endfacet
  facet normal 0.258819 -0.965926 0
    outer loop
      vertex 28.9 288.905 12
      vertex 30 289.2 0
      vertex 30 289.2 12
    endloop
  endfacet
  facet normal 0.258819 -0.965926 0
    outer loop
      vertex 28.9 288.905 12
      vertex 28.9 288.905 0
      vertex 30 289.2 0
    endloop
  endfacet
  facet normal -0.707107 0.707107 0
    outer loop
      vertex -231.644 -170.581 0
      vertex -232.449 -171.386 12
      vertex -231.644 -170.581 12
    endloop
  endfacet
  facet normal -0.707107 0.707107 0
    outer loop
      vertex -231.644 -170.581 0
      vertex -232.449 -171.386 0
      vertex -232.449 -171.386 12
    endloop
  endfacet
  facet normal -0.965926 0.258819 0
    outer loop
      vertex -231.349 -169.481 0
      vertex -231.644 -170.581 12
      vertex -231.349 -169.481 12
    endloop
  endfacet
  facet normal -0.965926 0.258819 0
    outer loop
      vertex -231.349 -169.481 0
      vertex -231.644 -170.581 0
      vertex -231.644 -170.581 12
    endloop
  endfacet
  facet normal -0.258819 0.965926 0
    outer loop
      vertex -232.449 -171.386 0
      vertex -233.549 -171.681 12
      vertex -232.449 -171.386 12
    endloop
  endfacet
  facet normal -0.258819 0.965926 0
    outer loop
      vertex -232.449 -171.386 0
      vertex -233.549 -171.681 0
      vertex -233.549 -171.681 12
    endloop
  endfacet
  facet normal -0.258819 -0.965926 0
    outer loop
      vertex -233.549 -167.281 12
      vertex -232.449 -167.576 0
      vertex -232.449 -167.576 12
    endloop
  endfacet
  facet normal -0.258819 -0.965926 -0
    outer loop
      vertex -233.549 -167.281 12
      vertex -233.549 -167.281 0
      vertex -232.449 -167.576 0
    endloop
  endfacet
  facet normal 0.707107 -0.707107 0
    outer loop
      vertex -235.455 -168.381 12
      vertex -234.649 -167.576 0
      vertex -234.649 -167.576 12
    endloop
  endfacet
  facet normal 0.707107 -0.707107 0
    outer loop
      vertex -235.455 -168.381 12
      vertex -235.455 -168.381 0
      vertex -234.649 -167.576 0
    endloop
  endfacet
  facet normal 0.707107 0.707107 -0
    outer loop
      vertex -235.455 -170.581 0
      vertex -235.455 -170.581 12
      vertex -234.649 -171.386 12
    endloop
  endfacet
  facet normal 0.707107 0.707107 -0
    outer loop
      vertex -234.649 -171.386 0
      vertex -235.455 -170.581 0
      vertex -234.649 -171.386 12
    endloop
  endfacet
  facet normal 0.965926 -0.258819 0
    outer loop
      vertex -235.749 -169.481 12
      vertex -235.455 -168.381 0
      vertex -235.455 -168.381 12
    endloop
  endfacet
  facet normal 0.965926 -0.258819 0
    outer loop
      vertex -235.749 -169.481 12
      vertex -235.749 -169.481 0
      vertex -235.455 -168.381 0
    endloop
  endfacet
  facet normal 0.258819 0.965926 -0
    outer loop
      vertex -233.549 -171.681 0
      vertex -234.649 -171.386 12
      vertex -233.549 -171.681 12
    endloop
  endfacet
  facet normal 0.258819 0.965926 0
    outer loop
      vertex -233.549 -171.681 0
      vertex -234.649 -171.386 0
      vertex -234.649 -171.386 12
    endloop
  endfacet
  facet normal -0.965926 -0.258819 0
    outer loop
      vertex -231.644 -168.381 0
      vertex -231.349 -169.481 0
      vertex -231.349 -169.481 12
    endloop
  endfacet
  facet normal -0.965926 -0.258819 -0
    outer loop
      vertex -231.644 -168.381 12
      vertex -231.644 -168.381 0
      vertex -231.349 -169.481 12
    endloop
  endfacet
  facet normal 0.258819 -0.965926 0
    outer loop
      vertex -234.649 -167.576 12
      vertex -233.549 -167.281 0
      vertex -233.549 -167.281 12
    endloop
  endfacet
  facet normal 0.258819 -0.965926 0
    outer loop
      vertex -234.649 -167.576 12
      vertex -234.649 -167.576 0
      vertex -233.549 -167.281 0
    endloop
  endfacet
  facet normal -0.707107 -0.707107 0
    outer loop
      vertex -232.449 -167.576 0
      vertex -231.644 -168.381 0
      vertex -231.644 -168.381 12
    endloop
  endfacet
  facet normal -0.707107 -0.707107 -0
    outer loop
      vertex -232.449 -167.576 12
      vertex -232.449 -167.576 0
      vertex -231.644 -168.381 12
    endloop
  endfacet
  facet normal 0.965926 0.258819 -0
    outer loop
      vertex -235.749 -169.481 0
      vertex -235.749 -169.481 12
      vertex -235.455 -170.581 12
    endloop
  endfacet
  facet normal 0.965926 0.258819 -0
    outer loop
      vertex -235.455 -170.581 0
      vertex -235.749 -169.481 0
      vertex -235.455 -170.581 12
    endloop
  endfacet
  facet normal -0.707107 0.707107 0
    outer loop
      vertex -261.644 -118.619 0
      vertex -262.449 -119.424 12
      vertex -261.644 -118.619 12
    endloop
  endfacet
  facet normal -0.707107 0.707107 0
    outer loop
      vertex -261.644 -118.619 0
      vertex -262.449 -119.424 0
      vertex -262.449 -119.424 12
    endloop
  endfacet
  facet normal -0.965926 0.258819 0
    outer loop
      vertex -261.349 -117.519 0
      vertex -261.644 -118.619 12
      vertex -261.349 -117.519 12
    endloop
  endfacet
  facet normal -0.965926 0.258819 0
    outer loop
      vertex -261.349 -117.519 0
      vertex -261.644 -118.619 0
      vertex -261.644 -118.619 12
    endloop
  endfacet
  facet normal 0.707107 -0.707107 0
    outer loop
      vertex -265.455 -116.419 12
      vertex -264.649 -115.614 0
      vertex -264.649 -115.614 12
    endloop
  endfacet
  facet normal 0.707107 -0.707107 0
    outer loop
      vertex -265.455 -116.419 12
      vertex -265.455 -116.419 0
      vertex -264.649 -115.614 0
    endloop
  endfacet
  facet normal -0.258819 0.965926 0
    outer loop
      vertex -262.449 -119.424 0
      vertex -263.549 -119.719 12
      vertex -262.449 -119.424 12
    endloop
  endfacet
  facet normal -0.258819 0.965926 0
    outer loop
      vertex -262.449 -119.424 0
      vertex -263.549 -119.719 0
      vertex -263.549 -119.719 12
    endloop
  endfacet
  facet normal -0.258819 -0.965926 0
    outer loop
      vertex -263.549 -115.319 12
      vertex -262.449 -115.614 0
      vertex -262.449 -115.614 12
    endloop
  endfacet
  facet normal -0.258819 -0.965926 -0
    outer loop
      vertex -263.549 -115.319 12
      vertex -263.549 -115.319 0
      vertex -262.449 -115.614 0
    endloop
  endfacet
  facet normal -0.965926 -0.258819 0
    outer loop
      vertex -261.644 -116.419 0
      vertex -261.349 -117.519 0
      vertex -261.349 -117.519 12
    endloop
  endfacet
  facet normal -0.965926 -0.258819 -0
    outer loop
      vertex -261.644 -116.419 12
      vertex -261.644 -116.419 0
      vertex -261.349 -117.519 12
    endloop
  endfacet
  facet normal -0.707107 -0.707107 0
    outer loop
      vertex -262.449 -115.614 0
      vertex -261.644 -116.419 0
      vertex -261.644 -116.419 12
    endloop
  endfacet
  facet normal -0.707107 -0.707107 -0
    outer loop
      vertex -262.449 -115.614 12
      vertex -262.449 -115.614 0
      vertex -261.644 -116.419 12
    endloop
  endfacet
  facet normal 0.707107 0.707107 -0
    outer loop
      vertex -265.455 -118.619 0
      vertex -265.455 -118.619 12
      vertex -264.649 -119.424 12
    endloop
  endfacet
  facet normal 0.707107 0.707107 -0
    outer loop
      vertex -264.649 -119.424 0
      vertex -265.455 -118.619 0
      vertex -264.649 -119.424 12
    endloop
  endfacet
  facet normal 0.258819 -0.965926 0
    outer loop
      vertex -264.649 -115.614 12
      vertex -263.549 -115.319 0
      vertex -263.549 -115.319 12
    endloop
  endfacet
  facet normal 0.258819 -0.965926 0
    outer loop
      vertex -264.649 -115.614 12
      vertex -264.649 -115.614 0
      vertex -263.549 -115.319 0
    endloop
  endfacet
  facet normal 0.965926 0.258819 -0
    outer loop
      vertex -265.749 -117.519 0
      vertex -265.749 -117.519 12
      vertex -265.455 -118.619 12
    endloop
  endfacet
  facet normal 0.965926 0.258819 -0
    outer loop
      vertex -265.455 -118.619 0
      vertex -265.749 -117.519 0
      vertex -265.455 -118.619 12
    endloop
  endfacet
  facet normal 0.965926 -0.258819 0
    outer loop
      vertex -265.749 -117.519 12
      vertex -265.455 -116.419 0
      vertex -265.455 -116.419 12
    endloop
  endfacet
  facet normal 0.965926 -0.258819 0
    outer loop
      vertex -265.749 -117.519 12
      vertex -265.749 -117.519 0
      vertex -265.455 -116.419 0
    endloop
  endfacet
  facet normal 0.258819 0.965926 -0
    outer loop
      vertex -263.549 -119.719 0
      vertex -264.649 -119.424 12
      vertex -263.549 -119.719 12
    endloop
  endfacet
  facet normal 0.258819 0.965926 0
    outer loop
      vertex -263.549 -119.719 0
      vertex -264.649 -119.424 0
      vertex -264.649 -119.424 12
    endloop
  endfacet
  facet normal -0.258819 -0.965926 0
    outer loop
      vertex 263.549 -115.319 12
      vertex 264.649 -115.614 0
      vertex 264.649 -115.614 12
    endloop
  endfacet
  facet normal -0.258819 -0.965926 -0
    outer loop
      vertex 263.549 -115.319 12
      vertex 263.549 -115.319 0
      vertex 264.649 -115.614 0
    endloop
  endfacet
  facet normal 0.258819 -0.965926 0
    outer loop
      vertex 262.449 -115.614 12
      vertex 263.549 -115.319 0
      vertex 263.549 -115.319 12
    endloop
  endfacet
  facet normal 0.258819 -0.965926 0
    outer loop
      vertex 262.449 -115.614 12
      vertex 262.449 -115.614 0
      vertex 263.549 -115.319 0
    endloop
  endfacet
  facet normal -0.707107 -0.707107 0
    outer loop
      vertex 264.649 -115.614 12
      vertex 265.455 -116.419 0
      vertex 265.455 -116.419 12
    endloop
  endfacet
  facet normal -0.707107 -0.707107 -0
    outer loop
      vertex 264.649 -115.614 12
      vertex 264.649 -115.614 0
      vertex 265.455 -116.419 0
    endloop
  endfacet
  facet normal 0.965926 0.258819 -0
    outer loop
      vertex 261.349 -117.519 0
      vertex 261.349 -117.519 12
      vertex 261.644 -118.619 12
    endloop
  endfacet
  facet normal 0.965926 0.258819 -0
    outer loop
      vertex 261.644 -118.619 0
      vertex 261.349 -117.519 0
      vertex 261.644 -118.619 12
    endloop
  endfacet
  facet normal 0.258819 0.965926 -0
    outer loop
      vertex 263.549 -119.719 0
      vertex 262.449 -119.424 12
      vertex 263.549 -119.719 12
    endloop
  endfacet
  facet normal 0.258819 0.965926 0
    outer loop
      vertex 263.549 -119.719 0
      vertex 262.449 -119.424 0
      vertex 262.449 -119.424 12
    endloop
  endfacet
  facet normal -0.965926 0.258819 0
    outer loop
      vertex 265.749 -117.519 0
      vertex 265.455 -118.619 12
      vertex 265.749 -117.519 12
    endloop
  endfacet
  facet normal -0.965926 0.258819 0
    outer loop
      vertex 265.749 -117.519 0
      vertex 265.455 -118.619 0
      vertex 265.455 -118.619 12
    endloop
  endfacet
  facet normal -0.258819 0.965926 0
    outer loop
      vertex 264.649 -119.424 0
      vertex 263.549 -119.719 12
      vertex 264.649 -119.424 12
    endloop
  endfacet
  facet normal -0.258819 0.965926 0
    outer loop
      vertex 264.649 -119.424 0
      vertex 263.549 -119.719 0
      vertex 263.549 -119.719 12
    endloop
  endfacet
  facet normal -0.965926 -0.258819 0
    outer loop
      vertex 265.455 -116.419 0
      vertex 265.749 -117.519 0
      vertex 265.749 -117.519 12
    endloop
  endfacet
  facet normal -0.965926 -0.258819 -0
    outer loop
      vertex 265.455 -116.419 12
      vertex 265.455 -116.419 0
      vertex 265.749 -117.519 12
    endloop
  endfacet
  facet normal 0.707107 -0.707107 0
    outer loop
      vertex 261.644 -116.419 12
      vertex 262.449 -115.614 0
      vertex 262.449 -115.614 12
    endloop
  endfacet
  facet normal 0.707107 -0.707107 0
    outer loop
      vertex 261.644 -116.419 12
      vertex 261.644 -116.419 0
      vertex 262.449 -115.614 0
    endloop
  endfacet
  facet normal 0.965926 -0.258819 0
    outer loop
      vertex 261.349 -117.519 12
      vertex 261.644 -116.419 0
      vertex 261.644 -116.419 12
    endloop
  endfacet
  facet normal 0.965926 -0.258819 0
    outer loop
      vertex 261.349 -117.519 12
      vertex 261.349 -117.519 0
      vertex 261.644 -116.419 0
    endloop
  endfacet
  facet normal 0.707107 0.707107 -0
    outer loop
      vertex 262.449 -119.424 0
      vertex 261.644 -118.619 12
      vertex 262.449 -119.424 12
    endloop
  endfacet
  facet normal 0.707107 0.707107 0
    outer loop
      vertex 262.449 -119.424 0
      vertex 261.644 -118.619 0
      vertex 261.644 -118.619 12
    endloop
  endfacet
  facet normal -0.707107 0.707107 0
    outer loop
      vertex 265.455 -118.619 0
      vertex 264.649 -119.424 12
      vertex 265.455 -118.619 12
    endloop
  endfacet
  facet normal -0.707107 0.707107 0
    outer loop
      vertex 265.455 -118.619 0
      vertex 264.649 -119.424 0
      vertex 264.649 -119.424 12
    endloop
  endfacet
  facet normal -0.258819 -0.965926 0
    outer loop
      vertex 233.549 -167.281 12
      vertex 234.649 -167.576 0
      vertex 234.649 -167.576 12
    endloop
  endfacet
  facet normal -0.258819 -0.965926 -0
    outer loop
      vertex 233.549 -167.281 12
      vertex 233.549 -167.281 0
      vertex 234.649 -167.576 0
    endloop
  endfacet
  facet normal 0.258819 -0.965926 0
    outer loop
      vertex 232.449 -167.576 12
      vertex 233.549 -167.281 0
      vertex 233.549 -167.281 12
    endloop
  endfacet
  facet normal 0.258819 -0.965926 0
    outer loop
      vertex 232.449 -167.576 12
      vertex 232.449 -167.576 0
      vertex 233.549 -167.281 0
    endloop
  endfacet
  facet normal 0.258819 0.965926 -0
    outer loop
      vertex 233.549 -171.681 0
      vertex 232.449 -171.386 12
      vertex 233.549 -171.681 12
    endloop
  endfacet
  facet normal 0.258819 0.965926 0
    outer loop
      vertex 233.549 -171.681 0
      vertex 232.449 -171.386 0
      vertex 232.449 -171.386 12
    endloop
  endfacet
  facet normal -0.707107 -0.707107 0
    outer loop
      vertex 234.649 -167.576 12
      vertex 235.455 -168.381 0
      vertex 235.455 -168.381 12
    endloop
  endfacet
  facet normal -0.707107 -0.707107 -0
    outer loop
      vertex 234.649 -167.576 12
      vertex 234.649 -167.576 0
      vertex 235.455 -168.381 0
    endloop
  endfacet
  facet normal 0.965926 0.258819 -0
    outer loop
      vertex 231.349 -169.481 0
      vertex 231.349 -169.481 12
      vertex 231.644 -170.581 12
    endloop
  endfacet
  facet normal 0.965926 0.258819 -0
    outer loop
      vertex 231.644 -170.581 0
      vertex 231.349 -169.481 0
      vertex 231.644 -170.581 12
    endloop
  endfacet
  facet normal 0.707107 -0.707107 0
    outer loop
      vertex 231.644 -168.381 12
      vertex 232.449 -167.576 0
      vertex 232.449 -167.576 12
    endloop
  endfacet
  facet normal 0.707107 -0.707107 0
    outer loop
      vertex 231.644 -168.381 12
      vertex 231.644 -168.381 0
      vertex 232.449 -167.576 0
    endloop
  endfacet
  facet normal 0.965926 -0.258819 0
    outer loop
      vertex 231.349 -169.481 12
      vertex 231.644 -168.381 0
      vertex 231.644 -168.381 12
    endloop
  endfacet
  facet normal 0.965926 -0.258819 0
    outer loop
      vertex 231.349 -169.481 12
      vertex 231.349 -169.481 0
      vertex 231.644 -168.381 0
    endloop
  endfacet
  facet normal -0.965926 0.258819 0
    outer loop
      vertex 235.749 -169.481 0
      vertex 235.455 -170.581 12
      vertex 235.749 -169.481 12
    endloop
  endfacet
  facet normal -0.965926 0.258819 0
    outer loop
      vertex 235.749 -169.481 0
      vertex 235.455 -170.581 0
      vertex 235.455 -170.581 12
    endloop
  endfacet
  facet normal 0.707107 0.707107 -0
    outer loop
      vertex 232.449 -171.386 0
      vertex 231.644 -170.581 12
      vertex 232.449 -171.386 12
    endloop
  endfacet
  facet normal 0.707107 0.707107 0
    outer loop
      vertex 232.449 -171.386 0
      vertex 231.644 -170.581 0
      vertex 231.644 -170.581 12
    endloop
  endfacet
  facet normal -0.707107 0.707107 0
    outer loop
      vertex 235.455 -170.581 0
      vertex 234.649 -171.386 12
      vertex 235.455 -170.581 12
    endloop
  endfacet
  facet normal -0.707107 0.707107 0
    outer loop
      vertex 235.455 -170.581 0
      vertex 234.649 -171.386 0
      vertex 234.649 -171.386 12
    endloop
  endfacet
  facet normal -0.258819 0.965926 0
    outer loop
      vertex 234.649 -171.386 0
      vertex 233.549 -171.681 12
      vertex 234.649 -171.386 12
    endloop
  endfacet
  facet normal -0.258819 0.965926 0
    outer loop
      vertex 234.649 -171.386 0
      vertex 233.549 -171.681 0
      vertex 233.549 -171.681 12
    endloop
  endfacet
  facet normal -0.965926 -0.258819 0
    outer loop
      vertex 235.455 -168.381 0
      vertex 235.749 -169.481 0
      vertex 235.749 -169.481 12
    endloop
  endfacet
  facet normal -0.965926 -0.258819 -0
    outer loop
      vertex 235.455 -168.381 12
      vertex 235.455 -168.381 0
      vertex 235.749 -169.481 12
    endloop
  endfacet
endsolid OpenSCAD_Model
